<svg version="1.1" id="Layer_1" xmlns="http://www.w3.org/2000/svg" xmlns:xlink="http://www.w3.org/1999/xlink" x="0px" y="0px"
	 width="100%" viewBox="0 0 180 180" enable-background="new 0 0 180 180" xml:space="preserve">
<path fill="#FFFFFF" opacity="1.000000" stroke="none" 
	d="
M181.000000,64.000000 
	C181.000000,103.333336 181.000000,142.166672 181.000000,181.000000 
	C121.000000,181.000000 61.000000,181.000000 1.000000,181.000000 
	C1.000000,121.000000 1.000000,61.000000 1.000000,1.000000 
	C61.000000,1.000000 121.000000,1.000000 181.000000,1.000000 
	C181.000000,21.833334 181.000000,42.666668 181.000000,64.000000 
M108.163460,21.006031 
	C105.888306,21.006031 103.613159,21.006031 100.995247,21.006031 
	C101.134506,22.601074 101.237015,23.775103 101.331352,24.855595 
	C104.013405,24.855595 106.301880,24.855595 108.929405,24.855595 
	C108.929405,23.458281 108.929405,22.198967 109.837906,20.995474 
	C112.114441,20.995474 114.390968,20.995474 117.008598,20.995474 
	C116.865593,19.396318 116.760338,18.219364 116.664673,17.149654 
	C113.976524,17.149654 111.686584,17.149654 109.071457,17.149654 
	C109.071457,18.556311 109.071457,19.819187 108.163460,21.006031 
M128.082062,100.990501 
	C127.029343,101.017189 125.976631,101.043877 124.994385,100.164185 
	C124.994385,97.881668 124.994385,95.599152 124.994385,91.765900 
	C121.970009,94.138832 119.939949,95.731628 116.923958,98.097992 
	C116.923958,93.877380 116.923958,91.405853 117.814056,88.995155 
	C118.844330,88.747070 120.720596,88.603584 120.766312,88.233780 
	C121.044106,85.986969 120.904869,83.688606 120.904869,81.027092 
	C119.462296,81.127365 118.284477,81.209244 117.066086,81.293938 
	C117.066086,84.130058 117.066086,86.603333 116.151756,89.005569 
	C113.880524,89.005569 111.609299,89.005569 108.992523,89.005569 
	C108.992523,86.180374 108.992523,83.756584 108.992523,81.332794 
	C108.627220,81.525764 108.261925,81.718735 107.896622,81.911705 
	C106.923027,80.718239 106.079788,79.373619 104.931244,78.383003 
	C104.128723,77.690834 102.908447,77.483009 101.874763,77.058861 
	C101.335030,79.753860 99.330887,80.890579 97.109428,82.134262 
	C95.823273,82.854324 95.167473,84.700310 94.227989,86.039589 
	C93.781723,85.857361 93.335457,85.675140 92.889191,85.492920 
	C92.889191,87.902763 92.889191,90.312614 92.889191,93.080200 
	C90.126122,93.080200 87.718918,93.080200 85.280846,93.080200 
	C85.280846,96.050674 85.280846,98.653259 84.314995,101.019653 
	C82.024719,101.019653 79.734436,101.019653 77.288887,101.019653 
	C77.288887,105.179199 77.288887,109.044456 77.288887,112.929428 
	C78.738609,112.929428 79.899460,112.929428 81.004524,113.837929 
	C81.004524,116.114464 81.004524,118.390991 81.004524,121.008636 
	C82.607376,120.865280 83.781998,120.760223 84.850342,120.664673 
	C84.850342,117.976501 84.850342,115.686554 84.850342,113.071480 
	C83.443665,113.071480 82.180779,113.071480 80.994026,112.202721 
	C81.956718,110.765869 82.919403,109.329018 83.882095,107.892166 
	C84.297714,108.062027 84.713341,108.231895 85.128960,108.401764 
	C85.128960,105.974861 85.128960,103.547958 85.988068,101.008827 
	C92.606674,101.146713 86.819405,106.792953 89.940262,108.243507 
	C92.098289,110.164101 94.256325,112.084694 97.069023,114.587914 
	C97.069023,116.139313 97.069023,118.607628 96.154282,121.005524 
	C93.878273,121.005524 91.602264,121.005524 88.973419,121.005524 
	C88.973419,123.837997 88.973419,126.270416 88.973419,128.702835 
	C88.557663,128.985474 88.141907,129.268127 87.726143,129.550766 
	C86.411507,128.206955 85.096870,126.863136 83.169853,124.893349 
	C81.983574,124.893349 79.688454,124.893349 76.997688,124.893349 
	C77.837212,121.097626 75.803848,120.567215 72.994904,120.165916 
	C72.994904,117.897011 72.994904,115.628098 72.994904,113.007133 
	C71.425644,113.131134 70.251762,113.223892 69.069199,113.317329 
	C69.069199,116.150108 69.069199,118.612785 68.127609,121.005363 
	C63.187099,121.005363 58.246590,121.005363 53.197731,121.005363 
	C53.197731,123.863571 53.197731,126.281410 53.197731,128.699234 
	C53.560364,128.984985 53.922997,129.270737 54.285625,129.556488 
	C55.596146,128.201752 56.906666,126.847031 58.534180,125.164612 
	C60.028664,125.164612 62.322678,125.164612 64.616692,125.164612 
	C64.918709,125.511993 65.220734,125.859375 65.522751,126.206757 
	C64.239777,127.536331 62.956799,128.865906 60.923904,130.972641 
	C60.923904,130.743057 60.923904,131.904282 60.997204,132.996674 
	C60.997204,132.996674 61.066128,132.923477 60.178547,132.994476 
	C53.633133,133.287689 58.744190,138.182449 58.518398,139.994476 
	C59.438805,141.747910 60.359215,143.501343 60.313934,145.019562 
	C57.916714,145.019562 55.519493,145.019562 53.181438,145.019562 
	C52.659496,133.149155 52.659496,133.149155 49.191872,133.531601 
	C49.191872,138.594315 49.191872,143.662537 49.191872,147.615311 
	C52.089386,150.165192 54.262184,152.077316 57.076065,154.553604 
	C57.076065,154.756699 57.076065,155.911179 56.185963,157.004837 
	C55.155685,157.252930 53.279400,157.396408 53.233677,157.766220 
	C52.955879,160.013031 53.095131,162.311386 53.095131,164.972931 
	C54.537716,164.872635 55.715534,164.790756 56.933929,164.706055 
	C56.933929,161.869919 56.933929,159.396652 57.821693,156.994476 
	C64.568542,156.945190 58.881676,162.667938 62.116875,164.904816 
	C62.552494,164.872604 63.721161,164.786194 65.071686,164.686325 
	C65.071686,160.693222 65.071686,157.075134 65.071686,152.974197 
	C68.290962,153.502014 70.124641,152.668015 68.353233,148.895447 
	C66.005806,148.895447 63.566067,148.895447 61.127968,148.895447 
	C61.127968,147.422852 61.127968,146.271408 61.962788,145.008835 
	C62.975109,144.377472 64.051857,143.827026 64.978996,143.088715 
	C65.698402,142.515823 66.231003,141.708359 66.846634,141.005173 
	C67.565529,141.775681 68.269958,142.560394 69.007973,143.312134 
	C69.580589,143.895386 70.173889,144.462357 70.794960,144.993317 
	C72.843422,146.744537 74.989830,148.390930 76.937843,150.246384 
	C78.157684,151.408234 79.088699,152.873306 80.672394,154.857788 
	C80.672394,156.094971 80.672394,158.501724 80.672394,161.094604 
	C78.049911,161.094604 75.755760,161.094604 73.036819,161.094604 
	C73.109764,162.490448 73.171043,163.663101 73.234268,164.872925 
	C77.251320,164.872925 80.876289,164.872925 83.818428,164.872925 
	C85.103722,163.307816 86.049034,162.156708 86.994347,161.005585 
	C87.942719,162.150467 88.891083,163.295334 90.110809,164.767792 
	C99.896263,164.767792 110.303925,164.767792 121.063461,164.767792 
	C121.063461,162.119400 121.063461,159.690475 121.063461,157.261536 
	C121.480042,157.488922 121.896614,157.716309 122.313194,157.943695 
	C123.309845,156.569565 124.306496,155.195435 125.767601,153.180939 
	C121.931015,153.180939 119.635376,153.180939 118.150841,153.180939 
	C116.952492,154.786804 116.154633,155.913177 115.295105,156.990356 
	C114.559090,157.912735 113.881615,158.963531 112.942368,159.620087 
	C111.907738,160.343323 110.603905,160.681442 108.923523,161.397888 
	C108.923523,155.219986 108.923523,150.076874 109.795876,144.995102 
	C111.263756,143.973846 112.731636,142.952591 114.199516,141.931320 
	C114.039940,141.523499 113.880363,141.115662 113.720779,140.707825 
	C116.128929,140.707825 118.537079,140.707825 120.659637,140.707825 
	C120.659637,137.883759 120.659637,135.470428 120.659637,133.157928 
	C118.016991,133.157928 115.715973,133.157928 114.809792,133.157928 
	C112.556961,135.347214 111.109711,136.753632 109.065674,138.740021 
	C109.065674,140.109802 109.065674,142.592972 108.240685,145.005478 
	C107.137749,144.977310 106.034821,144.949142 105.000633,144.994308 
	C105.000633,144.994308 105.073822,145.063248 105.005463,144.203674 
	C104.255074,143.134949 103.520805,142.054398 102.748871,141.001465 
	C102.193787,140.244324 101.284500,139.583786 101.123344,138.764145 
	C101.031609,138.297577 102.058044,137.506470 102.704338,137.028305 
	C103.380409,136.528137 104.380188,136.392029 104.927284,135.806198 
	C106.081841,134.569870 107.033356,133.143936 108.068176,131.795776 
	C108.353477,132.002670 108.638771,132.209564 108.924065,132.416458 
	C108.924065,131.254471 108.924065,130.092468 109.785751,128.994781 
	C110.857994,128.249069 111.943085,127.520958 112.998161,126.751701 
	C113.757477,126.198090 114.416725,125.285736 115.237221,125.123642 
	C115.702454,125.031723 116.388832,126.145256 117.000282,126.688080 
	C118.030472,127.602654 119.080284,128.495102 121.070038,130.217804 
	C121.070038,124.712082 121.070038,121.083458 121.070038,117.278328 
	C122.469780,117.067398 123.678986,116.885185 124.924156,116.697556 
	C124.924156,113.897797 124.924156,111.414291 125.818970,108.994995 
	C127.676628,109.147224 129.387009,109.227844 129.027786,106.451744 
	C128.783401,104.563194 128.807373,102.639900 129.590576,100.979095 
	C130.752365,100.962814 131.914169,100.946533 133.005600,101.836533 
	C133.005600,104.118263 133.005600,106.400002 133.005600,110.236176 
	C136.025833,107.864273 138.055176,106.270554 140.871277,104.058960 
	C140.871277,107.932793 140.871277,110.216339 140.871277,111.231415 
	C138.756409,113.348991 137.340042,114.767166 134.995239,117.114975 
	C134.084167,117.114975 131.676727,117.114975 129.206726,117.114975 
	C129.206726,119.899864 129.206726,122.312782 129.206726,124.725693 
	C129.572617,125.006905 129.938522,125.288116 130.304413,125.569336 
	C131.605408,124.205544 132.906403,122.841759 134.372543,121.304848 
	C136.142700,121.304848 138.539444,121.304848 141.068237,121.304848 
	C141.068237,122.765976 141.068237,123.922241 140.196213,125.005722 
	C138.742783,126.011299 137.289368,127.016869 135.835938,128.022446 
	C135.994553,128.369720 136.153168,128.716995 136.311783,129.064270 
	C132.697906,129.064270 129.084045,129.064270 125.470169,129.064270 
	C125.144768,129.400299 124.819359,129.736328 124.493958,130.072357 
	C125.493309,131.051971 126.520798,132.004990 127.481255,133.021347 
	C128.041092,133.613770 128.875458,134.300507 128.887695,134.957809 
	C128.900055,135.623810 128.187790,136.528442 127.544304,136.921082 
	C126.835312,137.353683 125.843285,137.322449 125.185318,137.451828 
	C125.185318,141.474472 125.185318,145.086563 125.185318,147.636108 
	C128.055908,150.154495 130.231705,152.063339 133.070450,154.553787 
	C133.070450,156.116653 133.070450,158.588455 132.161972,161.004517 
	C129.885452,161.004517 127.608932,161.004517 124.991348,161.004517 
	C125.134399,162.603760 125.239677,163.780716 125.335358,164.850311 
	C128.023560,164.850311 130.313507,164.850311 132.928391,164.850311 
	C132.928391,163.443619 132.928391,162.180725 133.818420,160.994049 
	C140.628601,161.090881 134.858002,155.299347 138.289368,152.999176 
	C141.122223,152.999176 144.876251,152.999176 148.998291,152.999176 
	C148.998291,150.199905 148.998291,147.780533 148.998291,145.329819 
	C150.547394,145.045898 151.750076,144.825470 152.832962,144.626999 
	C152.832962,140.635986 152.832962,137.005859 152.832962,134.827469 
	C150.618118,132.518570 149.222168,131.063339 147.035797,128.784119 
	C145.913971,128.784119 143.490265,128.784119 140.926071,128.784119 
	C140.926071,127.263809 140.926071,126.099907 141.787506,124.995155 
	C142.857742,124.415367 143.998123,123.932724 144.976913,123.226234 
	C145.818634,122.618683 146.475952,121.755630 147.214798,121.005547 
	C147.810532,121.733978 148.391769,122.474907 149.006378,123.187035 
	C149.540848,123.806343 150.058838,124.802856 150.682922,124.885399 
	C151.385040,124.978256 152.379456,124.403206 152.924973,123.818504 
	C154.078461,122.582146 155.022614,121.150475 156.052643,119.798920 
	C156.342865,120.006409 156.633072,120.213890 156.923294,120.421379 
	C156.923294,119.258743 156.923294,118.096107 157.788101,116.995026 
	C158.850601,116.580940 160.124390,116.406151 160.926910,115.697601 
	C162.182785,114.588783 163.119949,113.118965 164.835724,111.011559 
	C164.835724,107.340897 164.835724,102.381989 164.835724,97.038658 
	C163.474777,97.127022 162.303482,97.203064 160.929260,97.292290 
	C160.929260,101.290619 160.929260,104.918900 160.929260,108.720871 
	C159.528305,108.933228 158.318817,109.116562 157.065460,109.306541 
	C157.065460,112.106285 157.065460,114.591072 156.195892,117.005501 
	C154.725891,115.969887 153.255890,114.934280 151.785904,113.898674 
	C151.945511,113.556076 152.105133,113.213486 152.264755,112.870888 
	C149.970367,112.870888 147.675980,112.870888 145.023270,112.870888 
	C145.137161,111.433632 145.230545,110.255135 145.353134,108.708107 
	C148.124496,108.708107 150.538818,108.708107 152.837967,108.708107 
	C152.837967,106.002525 152.837967,103.697449 152.837967,102.278046 
	C150.003204,99.853912 147.769577,97.943840 144.924042,95.510498 
	C144.924042,95.258202 144.924042,94.094635 145.839798,92.994965 
	C148.213242,92.994965 150.586685,92.994965 152.933975,92.994965 
	C152.933975,89.836494 152.933975,87.379997 153.840057,84.994354 
	C156.129593,84.994354 158.419128,84.994354 160.708679,84.994354 
	C160.490768,85.424500 160.272873,85.854637 160.054977,86.284782 
	C161.408340,87.288162 162.761703,88.291542 164.842010,89.833862 
	C164.842010,80.627068 164.842010,73.008270 164.842010,66.353981 
	C163.183762,64.855026 162.094650,63.870548 161.005554,62.886070 
	C162.201508,61.962650 163.397476,61.039230 164.732468,60.008457 
	C164.732468,57.965569 164.732468,55.536682 164.732468,53.107792 
	C164.344788,52.854019 163.957123,52.600246 163.569443,52.346474 
	C162.371078,53.699432 161.172699,55.052391 159.469482,56.975315 
	C158.181732,56.975315 155.886810,56.975315 153.829895,56.975315 
	C152.990707,58.487183 152.429321,59.847687 151.513626,60.899815 
	C151.288147,61.158859 149.718842,60.626743 149.102829,60.080189 
	C148.138596,59.224670 147.460129,58.047073 146.660599,57.005909 
	C145.779221,58.271587 144.897858,59.537262 143.771408,61.154873 
	C141.919159,61.154873 139.623657,61.154873 138.193527,61.154873 
	C136.949631,62.800697 136.120758,63.897404 135.291885,64.994110 
	C134.519775,64.103088 133.748810,63.211090 132.975082,62.321465 
	C132.600647,61.890915 132.272186,61.401417 131.834305,61.048573 
	C130.512314,59.983311 129.146927,58.971912 127.798454,57.939518 
	C128.006012,57.650963 128.213562,57.362408 128.421127,57.073853 
	C127.259476,57.073853 126.097816,57.073853 124.995247,56.202698 
	C123.982811,54.738903 122.970375,53.275108 121.957947,51.811314 
	C121.677513,51.973949 121.397079,52.136589 121.116646,52.299229 
	C121.010490,49.883984 120.904335,47.468739 120.798882,45.069454 
	C119.258186,45.069454 118.099510,45.069454 116.995636,44.136139 
	C116.995636,40.517139 116.995636,36.898144 116.995636,33.475075 
	C111.411469,33.475075 106.235680,33.475075 101.080315,33.475075 
	C101.080315,34.750698 101.080315,35.910641 100.275276,37.005249 
	C99.223045,36.960991 98.170815,36.916729 97.008339,36.002056 
	C97.391426,33.670277 96.561356,32.810509 94.070099,32.939426 
	C89.817345,33.159504 85.544945,33.000107 80.921127,33.000107 
	C80.921127,27.442896 80.921127,22.366529 80.921127,17.216694 
	C78.134979,17.216694 75.730194,17.216694 73.191872,17.216694 
	C73.191872,19.855305 73.191872,22.274918 73.191872,24.199438 
	C74.686111,25.004147 76.012672,25.437691 76.875519,26.323118 
	C77.214973,26.671459 76.628723,28.752121 76.274895,28.806190 
	C74.471809,29.081715 72.144577,28.834942 73.169441,31.610573 
	C73.544312,32.625816 75.586624,33.025368 77.075874,33.816010 
	C77.075874,34.747551 77.075874,35.908443 76.186447,37.005085 
	C69.362312,36.934265 75.153183,42.710300 71.823700,44.962711 
	C71.387466,44.859833 69.382317,44.818855 69.232956,44.271477 
	C68.767914,42.567265 69.207489,40.144424 66.401512,41.168522 
	C65.384529,41.539696 64.977356,43.581707 64.177155,45.075615 
	C63.255386,45.075615 62.093250,45.075615 60.995098,44.131725 
	C60.900826,38.998753 60.806553,33.865780 61.588234,28.979145 
	C62.745640,28.962532 63.903042,28.945919 65.004532,29.837841 
	C65.004532,32.114376 65.004532,34.390911 65.004532,37.008568 
	C66.603630,36.865593 67.780586,36.760365 68.850372,36.664719 
	C68.850372,33.976597 68.850372,31.686657 68.850372,29.071362 
	C67.443764,29.071362 66.180908,29.071362 64.993973,28.209280 
	C65.575920,27.140076 66.071823,26.011047 66.762604,25.017523 
	C67.543800,23.893961 68.499969,22.892056 70.153351,20.910412 
	C66.015312,20.910412 63.720634,20.910412 62.376095,20.910412 
	C60.860725,19.203712 59.884876,18.104650 58.909023,17.005590 
	C57.981552,18.192759 57.054081,19.379927 55.652920,21.173416 
	C53.998356,21.173416 51.575981,21.173416 48.212826,21.173416 
	C51.254932,28.318312 57.356640,22.917019 60.863461,25.600784 
	C60.863461,26.557035 60.863461,27.712921 59.979267,28.990515 
	C57.739132,28.990515 55.499001,28.990515 52.924706,28.990515 
	C52.924706,31.892252 52.924706,34.293316 52.924706,36.664242 
	C51.402958,36.960957 50.217384,37.192123 49.068993,37.416039 
	C49.068993,41.523075 49.068993,45.299385 48.127731,49.005390 
	C43.166912,49.005390 38.206093,49.005390 34.455616,49.005390 
	C31.767672,52.207184 29.820242,54.635754 27.671984,56.871338 
	C27.506859,57.043175 25.873495,55.924080 25.015965,55.280567 
	C23.916346,54.455376 22.911396,53.504040 21.150440,51.993568 
	C21.150440,55.964905 21.150440,58.256618 21.150440,60.733471 
	C22.475388,60.934467 23.685581,61.118057 25.069113,61.327946 
	C25.069113,64.109619 25.069113,66.592705 24.180939,69.005531 
	C17.374689,68.919868 23.142124,74.688698 19.896637,76.879868 
	C19.471035,76.951073 18.274689,77.151230 17.307930,77.312981 
	C17.307930,82.775475 17.307930,87.848854 17.307930,93.079659 
	C20.100227,93.079659 22.584848,93.079659 25.000437,93.006371 
	C25.000437,93.006371 24.927231,92.937263 24.994713,93.851700 
	C24.994713,96.129478 24.994713,98.407265 24.994713,101.057068 
	C22.147270,101.057068 19.730829,101.057068 17.201691,101.057068 
	C17.201691,103.862602 17.201691,106.285515 17.201691,108.708427 
	C17.568335,108.992546 17.934980,109.276672 18.301624,109.560791 
	C19.606527,108.191063 20.911430,106.821335 22.784449,104.855270 
	C24.043531,104.855270 26.329689,104.855270 28.977364,104.855270 
	C28.977364,102.211212 28.977364,99.784409 28.977364,98.395569 
	C32.124409,95.823441 34.597641,93.906326 36.863911,91.769691 
	C37.064789,91.580299 36.022171,89.879799 35.369015,89.024818 
	C34.531033,87.927925 33.502510,86.976593 31.933441,85.295425 
	C37.334019,85.295425 41.076458,85.295425 44.715660,85.295425 
	C44.715660,89.343231 44.715660,93.089798 44.715660,97.027023 
	C42.135006,97.027023 39.837502,97.027023 37.539997,97.027023 
	C37.721249,97.403160 37.902496,97.779305 38.083744,98.155441 
	C36.737740,99.118614 35.335125,100.014587 34.073273,101.077644 
	C33.559879,101.510155 33.002647,102.361519 33.092163,102.922241 
	C33.209949,103.660057 33.808132,104.520882 34.452847,104.921181 
	C35.160412,105.360504 36.155807,105.336235 36.779728,105.463699 
	C36.779728,108.172874 36.779728,110.460213 36.779728,113.346695 
	C32.817268,113.346695 29.073193,113.346695 24.827984,113.346695 
	C24.827984,118.493690 24.827984,123.724762 24.827984,129.131470 
	C22.013309,129.131470 19.715275,129.131470 17.029911,129.131470 
	C17.125004,130.532257 17.204563,131.704224 17.282705,132.855331 
	C21.303205,132.855331 24.931715,132.855331 27.722471,132.855331 
	C29.135174,131.229416 30.101282,130.117508 31.067394,129.005585 
	C31.995962,130.184387 32.924530,131.363190 34.026512,132.762131 
	C37.334240,132.762131 41.106300,132.762131 46.355812,132.762131 
	C44.760113,130.936081 43.941475,129.943100 43.060059,129.009354 
	C42.418224,128.329437 41.180790,127.751343 41.150066,127.084488 
	C41.119366,126.418129 42.229801,125.668159 42.894199,125.009529 
	C43.559299,124.350204 44.804840,123.793297 44.849949,123.127403 
	C44.895157,122.460045 43.812912,121.671799 43.148663,121.013374 
	C42.483391,120.353928 41.723969,119.789482 41.005810,119.183403 
	C41.768143,118.454597 42.662090,117.818573 43.258389,116.972717 
	C43.951797,115.989113 44.384418,114.821663 44.930222,113.734001 
	C37.768246,111.720062 41.447212,109.926720 44.915287,107.740196 
	C46.259838,106.892509 47.043419,105.155067 48.082550,103.822952 
	C48.468685,103.999290 48.854816,104.175629 49.240952,104.351967 
	C49.240952,100.610809 49.240952,96.869652 49.240952,92.772095 
	C54.732510,92.772095 59.818779,92.772095 65.082664,92.772095 
	C65.082664,89.906197 65.082664,87.416962 65.009338,84.996719 
	C65.009338,84.996719 64.940231,85.069923 65.827385,85.005104 
	C72.605446,84.951912 66.880714,90.647453 70.522530,93.187981 
	C71.507126,92.261444 72.838333,91.008743 74.677971,89.277588 
	C78.580391,89.277588 83.634491,89.277588 89.040298,89.277588 
	C88.867332,87.390594 88.759377,86.212822 88.623695,84.732620 
	C85.861809,84.732620 83.461899,84.732620 80.924164,84.732620 
	C80.924164,83.239395 80.924164,82.085190 81.832008,80.994888 
	C84.124435,80.994888 86.416870,80.994888 88.709297,80.994888 
	C89.193031,79.020081 90.259956,78.040184 91.247917,76.986282 
	C91.889587,76.301781 92.717140,75.567383 92.876152,74.742523 
	C92.964981,74.281731 91.937660,73.464867 91.266815,73.039406 
	C90.635544,72.639053 89.213783,72.619713 89.172058,72.298615 
	C88.938164,70.498856 89.202049,68.144547 86.399757,69.168716 
	C85.383011,69.540314 84.976852,71.582588 84.177910,73.076019 
	C83.254478,73.076019 82.092422,73.076019 80.994797,72.212296 
	C80.588379,71.150124 80.427536,69.868149 79.718941,69.076431 
	C78.609314,67.836639 77.129425,66.928223 75.806374,65.879448 
	C75.985847,65.609253 76.165321,65.339066 76.344795,65.068871 
	C73.871254,65.068871 71.397720,65.068871 68.994400,64.162704 
	C68.994400,61.875160 68.994400,59.587612 68.994400,58.383072 
	C70.841301,56.942112 71.917809,56.102219 72.994316,55.262325 
	C72.096207,54.499748 71.002289,53.873257 70.352440,52.938152 
	C69.634163,51.904579 69.322639,50.588326 68.640999,48.924065 
	C73.459015,48.924065 77.264191,48.924065 81.005112,49.788250 
	C80.425262,50.858269 79.933838,51.989941 79.242134,52.981976 
	C78.460342,54.103226 77.498634,55.099041 76.160149,56.690384 
	C81.424461,56.690384 85.167450,56.690384 88.930794,56.690384 
	C88.930794,53.895329 88.930794,51.409771 89.827866,48.994541 
	C91.789536,49.205170 93.272873,49.102924 93.054565,46.355591 
	C92.813797,43.325657 92.999603,40.261829 92.999603,37.244930 
	C94.726799,37.032368 95.989838,36.876926 97.018936,37.714058 
	C97.018936,43.981964 97.018936,50.249874 97.018936,57.246578 
	C99.749596,57.040318 103.057106,57.726490 104.484840,56.395802 
	C105.695633,55.267315 104.734604,51.808605 104.734604,49.260551 
	C103.465599,49.047298 102.270256,48.846428 100.938141,48.622570 
	C100.938141,44.514141 100.938141,40.721031 101.825401,36.994797 
	C108.646942,36.941509 102.836914,42.718861 106.181671,44.967079 
	C106.619049,44.861244 108.627899,44.803272 108.767731,44.262238 
	C109.214310,42.534393 108.822281,40.143005 111.609940,41.169579 
	C112.626297,41.543858 113.027473,43.588650 113.739067,44.927277 
	C114.757576,44.927277 115.920380,44.927277 117.006042,45.797070 
	C115.974068,47.268291 114.942093,48.739513 113.910118,50.210735 
	C113.663216,50.050739 113.416321,49.890747 113.169418,49.730755 
	C113.169418,52.028515 113.169418,54.326275 113.169418,55.904427 
	C114.745216,57.042179 115.869865,57.854195 116.994514,58.666218 
	C115.879501,59.816410 114.764481,60.966599 113.286377,62.491329 
	C113.286377,64.393791 113.286377,67.132629 113.286377,71.058250 
	C116.098434,68.175156 118.181061,66.039917 121.223755,62.920357 
	C121.223755,61.908028 121.223755,59.485806 121.223755,56.931683 
	C122.749565,56.931683 123.914101,56.931683 125.005798,57.837879 
	C125.005798,60.131866 125.005798,62.425854 125.005798,64.719841 
	C125.393028,64.517159 125.780258,64.314484 126.167488,64.111801 
	C127.504471,65.614937 128.841446,67.118073 130.654388,69.156326 
	C132.078949,69.156326 134.377441,69.156326 135.781754,69.156326 
	C137.053345,70.812737 137.890778,71.903603 138.728210,72.994469 
	C139.863815,71.856743 140.999435,70.719017 142.806549,68.908539 
	C145.332153,68.908539 148.965729,68.908539 152.599304,68.908539 
	C152.379410,68.589600 152.159515,68.270660 151.939606,67.951721 
	C153.301315,66.837837 154.663025,65.723946 156.857666,63.928722 
	C156.857666,67.933754 156.857666,70.227722 156.857666,72.745544 
	C155.563644,72.921371 154.349533,73.086334 153.076096,73.259361 
	C153.076096,77.431984 153.076096,81.248863 152.177139,85.004707 
	C150.083328,85.265800 148.714142,84.952621 148.943878,82.226776 
	C149.192459,79.277420 149.000183,76.290901 149.000183,73.320595 
	C148.584137,73.031944 148.168091,72.743294 147.752045,72.454643 
	C146.429077,73.788208 145.106110,75.121765 143.411835,76.829620 
	C139.319153,76.829620 134.356369,76.829620 129.283524,76.829620 
	C129.050613,75.477776 128.842453,74.269524 128.650452,73.155151 
	C126.016991,73.155151 123.717453,73.155151 119.787766,73.155151 
	C122.321121,76.155769 124.098518,78.260979 126.595680,81.218719 
	C128.021912,81.218719 130.430496,81.218719 133.075897,81.218719 
	C133.075897,85.434692 133.075897,89.251999 132.190277,93.005058 
	C130.311935,92.843742 128.646820,92.783318 128.955917,95.571274 
	C129.148911,97.312019 128.908569,99.100815 128.082062,100.990501 
M60.995224,104.210403 
	C61.577774,103.140816 62.075241,102.012199 62.765438,101.017296 
	C63.545006,99.893555 64.497787,98.889969 65.790688,97.334213 
	C61.886364,97.334213 59.478580,97.334213 57.295006,97.334213 
	C57.295006,100.095146 57.295006,102.516510 57.295006,104.931961 
	C58.752754,104.931961 59.915524,104.931961 61.005653,105.864105 
	C61.005653,109.475220 61.005653,113.086334 61.005653,117.018318 
	C62.611748,116.867332 63.792542,116.756332 65.129120,116.630676 
	C65.129120,113.962128 65.129120,111.669891 65.129120,108.996758 
	C68.916618,109.837418 69.423759,107.793480 69.814056,104.995163 
	C70.844330,104.747078 72.720589,104.603592 72.766319,104.233780 
	C73.044113,101.986977 72.904869,99.688606 72.904869,97.027092 
	C71.462296,97.127380 70.284477,97.209259 69.066086,97.293961 
	C69.066086,100.130058 69.066086,102.603333 68.165367,105.005516 
	C65.755516,105.028381 63.345661,105.051254 60.995224,104.210403 
M120.995148,28.185978 
	C120.747078,27.155703 120.603607,25.279421 120.233810,25.233702 
	C117.987007,24.955906 115.688629,25.095150 113.027077,25.095150 
	C113.127350,26.537676 113.209221,27.715496 113.293915,28.933958 
	C116.130005,28.933958 118.603279,28.933958 121.005653,29.839752 
	C121.005653,32.125183 121.005653,34.410610 121.005653,35.443737 
	C124.077278,38.157589 126.245438,40.073208 129.068573,42.567513 
	C129.068573,45.288727 129.068573,48.902363 129.068573,52.702267 
	C130.456299,52.702267 131.622726,52.702267 132.892838,52.702267 
	C132.892838,47.468678 132.892838,42.527454 132.892838,38.086887 
	C131.394073,36.946564 130.199936,36.038021 129.005798,35.129475 
	C129.946487,34.407642 130.940872,33.743824 131.807266,32.941746 
	C132.309311,32.476959 132.963425,31.753027 132.907944,31.211376 
	C132.830170,30.451962 132.314316,29.531691 131.694122,29.087843 
	C130.986526,28.581444 129.242386,28.622608 129.190796,28.252632 
	C128.935760,26.423368 129.117584,24.145905 126.376747,25.170271 
	C125.363937,25.548800 124.972389,27.589624 124.190277,29.076092 
	C123.251541,29.076092 122.092903,29.076092 120.995148,28.185978 
M39.400288,17.000000 
	C31.977306,17.000000 24.554327,17.000000 17.324337,17.000000 
	C17.324337,26.720381 17.324337,35.793598 17.324337,44.673622 
	C26.724545,44.673622 35.797882,44.673622 44.848434,44.673622 
	C44.848434,35.394199 44.848434,26.441900 44.848434,17.000000 
	C43.277687,17.000000 41.827526,17.000000 39.400288,17.000000 
M141.622635,45.000000 
	C149.377029,45.000000 157.131424,45.000000 164.666595,45.000000 
	C164.666595,35.261875 164.666595,26.188042 164.666595,17.336029 
	C155.256561,17.336029 146.182312,17.336029 137.000092,17.336029 
	C137.000092,25.661489 137.153091,33.655735 136.922638,41.638912 
	C136.834015,44.708706 138.043259,45.392918 141.622635,45.000000 
M45.000000,156.456360 
	C45.000000,150.027939 45.000000,143.599518 45.000000,137.303741 
	C35.320759,137.303741 26.248816,137.303741 17.305195,137.303741 
	C17.305195,146.682327 17.305195,155.754257 17.305195,164.693207 
	C26.684971,164.693207 35.756840,164.693207 45.000000,164.693207 
	C45.000000,162.071655 45.000000,159.755692 45.000000,156.456360 
M165.000000,145.420715 
	C165.000000,138.675125 165.000000,131.929535 165.000000,125.265678 
	C162.032532,125.265678 159.624863,125.265678 157.115356,125.265678 
	C157.115356,127.815025 157.115356,130.100220 157.115356,132.534958 
	C158.437698,132.877777 159.736038,133.214355 160.780579,133.485153 
	C160.780579,136.168442 160.780579,138.445648 160.780579,140.670090 
	C159.369492,140.971176 158.178070,141.225388 157.187790,141.436691 
	C157.187790,144.099075 157.187790,146.388779 157.187790,147.760605 
	C159.948898,149.991119 162.018616,151.663086 165.000000,154.071518 
	C165.000000,150.359207 165.000000,148.378540 165.000000,145.420715 
M91.609062,64.999733 
	C93.239845,64.999733 94.870636,64.999733 96.501419,64.999733 
	C96.304985,65.307175 96.108551,65.614624 95.912117,65.922066 
	C97.241440,67.097626 98.570763,68.273178 100.763901,70.212624 
	C100.763901,66.091408 100.763901,63.694187 100.763901,61.197086 
	C96.793800,61.197086 93.061874,61.197086 88.066292,61.197086 
	C89.256638,62.915703 89.977242,63.956123 91.609062,64.999733 
M161.383072,164.999985 
	C162.489319,164.999985 163.595581,164.999985 164.809723,164.999985 
	C164.809723,162.135498 164.809723,159.729630 164.809723,157.323746 
	C164.452835,157.037384 164.095963,156.751022 163.739075,156.464645 
	C162.426025,157.774780 161.112976,159.084915 159.126770,161.066711 
	C158.050415,161.066711 155.772766,161.066711 153.285431,161.066711 
	C153.285431,162.439407 153.285431,163.607407 153.285431,165.000000 
	C155.856247,165.000000 158.149017,165.000000 161.383072,164.999985 
M91.461914,21.003801 
	C90.644768,20.508749 89.738083,20.115585 89.031578,19.494646 
	C87.985565,18.575308 87.081627,17.494333 86.117195,16.482176 
	C85.814751,16.805773 85.512306,17.129370 85.209862,17.452967 
	C85.209862,19.856119 85.209862,22.259274 85.209862,24.823980 
	C87.825623,24.823980 90.231377,24.823980 93.172707,24.823980 
	C92.865730,23.392050 92.615906,22.226702 91.461914,21.003801 
M142.337769,49.000202 
	C140.598633,49.000202 138.859512,49.000202 137.258026,49.000202 
	C137.258026,52.057701 137.258026,54.477127 137.258026,58.242786 
	C140.376099,55.586422 142.719666,53.670177 144.883392,51.568756 
	C145.030090,51.426277 143.823578,49.890461 142.337769,49.000202 
M148.934647,161.618805 
	C146.427246,161.347305 143.919846,161.075821 140.998901,160.759537 
	C141.127899,162.556000 141.211700,163.723068 141.330536,165.378113 
	C144.020370,163.814941 147.857162,167.446472 148.934647,161.618805 
z"/>
<path fill="#000000" opacity="1.000000" stroke="none" 
	d="
M80.924164,80.930977 
	C80.924164,82.085190 80.924164,83.239395 80.924164,84.732620 
	C83.461899,84.732620 85.861809,84.732620 88.623695,84.732620 
	C88.759377,86.212822 88.867332,87.390594 89.040298,89.277588 
	C83.634491,89.277588 78.580391,89.277588 74.677971,89.277588 
	C72.838333,91.008743 71.507126,92.261444 70.522530,93.187981 
	C66.880714,90.647453 72.605446,84.951912 65.411438,84.584335 
	C64.995491,81.886223 64.995491,79.608864 64.995491,77.331512 
	C64.621269,77.034561 64.247047,76.737610 63.872829,76.440659 
	C62.914688,77.349648 61.967369,78.270432 60.994732,79.163635 
	C60.309132,79.793236 59.659988,80.694542 58.857948,80.878319 
	C58.376755,80.988586 57.607079,79.979950 57.012779,79.425201 
	C56.004852,78.484360 55.033077,77.504791 53.119400,75.637032 
	C53.119400,79.801598 53.119400,82.081314 53.119400,84.393524 
	C54.406891,84.870781 55.848270,85.101662 56.883640,85.875656 
	C57.885395,86.624519 58.469231,87.932434 59.236629,88.994789 
	C60.129166,87.754776 61.021706,86.514763 62.164024,84.927727 
	C62.775879,84.927727 63.929272,84.927727 65.082664,84.927727 
	C65.082664,87.416962 65.082664,89.906197 65.082664,92.772095 
	C59.818779,92.772095 54.732510,92.772095 49.240952,92.772095 
	C49.240952,96.869652 49.240952,100.610809 49.240952,104.351967 
	C48.854816,104.175629 48.468685,103.999290 48.082550,103.822952 
	C47.043419,105.155067 46.259838,106.892509 44.915287,107.740196 
	C41.447212,109.926720 37.768246,111.720062 44.930222,113.734001 
	C44.384418,114.821663 43.951797,115.989113 43.258389,116.972717 
	C42.662090,117.818573 41.768143,118.454597 41.005814,119.183403 
	C41.723969,119.789482 42.483391,120.353928 43.148663,121.013374 
	C43.812912,121.671799 44.895157,122.460045 44.849949,123.127403 
	C44.804840,123.793297 43.559299,124.350204 42.894199,125.009529 
	C42.229801,125.668159 41.119366,126.418129 41.150066,127.084488 
	C41.180790,127.751343 42.418224,128.329437 43.060059,129.009354 
	C43.941475,129.943100 44.760113,130.936081 46.355812,132.762131 
	C41.106300,132.762131 37.334240,132.762131 34.026512,132.762131 
	C32.924530,131.363190 31.995962,130.184387 31.067394,129.005585 
	C30.101282,130.117508 29.135174,131.229416 27.722471,132.855331 
	C24.931715,132.855331 21.303205,132.855331 17.282705,132.855331 
	C17.204563,131.704224 17.125004,130.532257 17.029911,129.131470 
	C19.715275,129.131470 22.013309,129.131470 24.827984,129.131470 
	C24.827984,123.724762 24.827984,118.493690 24.827984,113.346695 
	C29.073193,113.346695 32.817268,113.346695 36.779728,113.346695 
	C36.779728,110.460213 36.779728,108.172874 36.779728,105.463699 
	C36.155807,105.336235 35.160412,105.360504 34.452847,104.921181 
	C33.808132,104.520882 33.209949,103.660057 33.092163,102.922241 
	C33.002647,102.361519 33.559879,101.510155 34.073273,101.077644 
	C35.335125,100.014587 36.737740,99.118614 38.083744,98.155441 
	C37.902496,97.779305 37.721249,97.403160 37.539997,97.027023 
	C39.837502,97.027023 42.135006,97.027023 44.715660,97.027023 
	C44.715660,93.089798 44.715660,89.343231 44.715660,85.295425 
	C41.076458,85.295425 37.334019,85.295425 31.933441,85.295425 
	C33.502510,86.976593 34.531033,87.927925 35.369015,89.024818 
	C36.022171,89.879799 37.064789,91.580299 36.863911,91.769691 
	C34.597641,93.906326 32.124409,95.823441 28.977364,98.395569 
	C28.977364,99.784409 28.977364,102.211212 28.977364,104.855270 
	C26.329689,104.855270 24.043531,104.855270 22.784449,104.855270 
	C20.911430,106.821335 19.606527,108.191063 18.301624,109.560791 
	C17.934980,109.276672 17.568335,108.992546 17.201691,108.708427 
	C17.201691,106.285515 17.201691,103.862602 17.201691,101.057068 
	C19.730829,101.057068 22.147270,101.057068 24.994713,101.057068 
	C24.994713,98.407265 24.994713,96.129478 25.405396,93.423523 
	C32.371937,92.513634 27.308506,87.751625 28.634394,86.077385 
	C26.059303,84.013298 23.978451,82.345375 21.152727,80.080391 
	C21.152727,83.993347 21.152727,86.292404 21.152727,88.721489 
	C22.506609,88.942268 23.736242,89.142792 25.069468,89.360207 
	C25.069468,90.750374 25.069468,91.915016 25.069468,93.079659 
	C22.584848,93.079659 20.100227,93.079659 17.307930,93.079659 
	C17.307930,87.848854 17.307930,82.775475 17.307930,77.312981 
	C18.274689,77.151230 19.471035,76.951073 19.896637,76.879868 
	C23.142124,74.688698 17.374689,68.919868 24.590488,69.003960 
	C25.000036,69.002388 24.929901,68.929985 24.962421,69.373810 
	C25.734221,76.544701 30.311884,71.449135 33.070103,73.143379 
	C33.070103,71.238892 33.070103,70.084435 33.035065,68.964981 
	C33.000023,68.999985 32.929974,69.070023 33.383507,69.037598 
	C36.130890,69.005173 38.424732,69.005173 40.718578,69.005173 
	C40.990547,69.454468 41.262512,69.903763 41.534481,70.353050 
	C40.162308,71.636826 38.790134,72.920593 37.197052,74.411041 
	C37.197052,76.064888 37.197052,78.351112 37.197052,80.813293 
	C39.817497,80.813293 42.240814,80.813293 44.664135,80.813293 
	C44.464577,80.518959 44.265018,80.224625 44.065464,79.930290 
	C45.544128,78.559303 47.022789,77.188316 49.117317,75.246315 
	C49.117317,73.981598 49.117317,71.679832 49.117317,69.378067 
	C49.480843,69.081276 49.844368,68.784485 50.207893,68.487686 
	C51.544662,69.777046 52.881432,71.066406 54.548580,72.674423 
	C56.088085,72.674423 58.499836,72.674423 61.235477,72.674423 
	C61.235477,69.920174 61.235477,67.494148 61.235477,65.070061 
	C62.741203,65.070061 63.905640,65.070061 65.035049,65.034988 
	C65.000015,64.999916 64.930122,64.929596 64.962494,65.381699 
	C64.994858,68.098984 64.994858,70.364166 64.994858,72.823280 
	C66.557068,72.917908 67.813538,72.994011 69.035019,73.035065 
	C69.000023,73.000023 68.929863,72.930099 68.962402,73.374214 
	C68.962837,80.579933 74.659752,74.885719 76.860497,78.022720 
	C75.274216,81.932808 78.688950,80.887062 81.033783,81.035110 
	C80.997574,81.000053 80.924164,80.930977 80.924164,80.930977 
M36.999710,119.615067 
	C37.197857,115.817192 35.048084,116.962341 33.148796,117.419479 
	C33.148796,120.013321 33.148796,122.277443 33.148796,124.959030 
	C34.477619,124.898468 35.644112,124.845306 36.999981,124.783516 
	C36.999981,123.134583 36.999981,121.839836 36.999710,119.615067 
z"/>
<path fill="#000000" opacity="1.000000" stroke="none" 
	d="
M108.924065,128.930481 
	C108.924065,130.092468 108.924065,131.254471 108.924065,132.416458 
	C108.638771,132.209564 108.353477,132.002670 108.068176,131.795776 
	C107.033356,133.143936 106.081841,134.569870 104.927284,135.806198 
	C104.380188,136.392029 103.380409,136.528137 102.704338,137.028305 
	C102.058044,137.506470 101.031609,138.297577 101.123344,138.764145 
	C101.284500,139.583786 102.193787,140.244324 102.748871,141.001465 
	C103.520805,142.054398 104.255074,143.134949 104.585838,144.604202 
	C101.878456,145.004730 99.590706,145.004730 98.777046,145.004730 
	C96.814667,146.959595 95.701027,147.908798 94.790054,149.023621 
	C93.956749,150.043396 93.342583,151.242233 92.340889,152.820648 
	C96.110046,152.987869 98.528046,153.095154 101.070564,153.207947 
	C101.070564,154.740860 101.070564,155.900589 100.616310,157.032425 
	C97.885529,157.004532 95.608994,157.004532 92.991394,157.004532 
	C93.134415,158.603714 93.239670,159.780670 93.335335,160.850342 
	C96.023499,160.850342 98.313446,160.850342 100.928505,160.850342 
	C100.928505,159.443665 100.928505,158.180786 101.376595,156.955994 
	C103.853241,157.238998 105.279938,157.032379 105.053795,154.294922 
	C104.797127,151.188126 104.954506,148.047104 104.931885,144.920959 
	C106.034821,144.949142 107.137749,144.977310 108.618706,145.004150 
	C108.996727,145.002823 108.923523,144.933762 108.923523,144.933762 
	C108.923523,150.076874 108.923523,155.219986 108.923523,161.397888 
	C110.603905,160.681442 111.907738,160.343323 112.942368,159.620087 
	C113.881615,158.963531 114.559090,157.912735 115.295105,156.990356 
	C116.154633,155.913177 116.952492,154.786804 118.150841,153.180939 
	C119.635376,153.180939 121.931015,153.180939 125.767601,153.180939 
	C124.306496,155.195435 123.309845,156.569565 122.313194,157.943695 
	C121.896614,157.716309 121.480042,157.488922 121.063461,157.261536 
	C121.063461,159.690475 121.063461,162.119400 121.063461,164.767792 
	C110.303925,164.767792 99.896263,164.767792 90.110809,164.767792 
	C88.891083,163.295334 87.942719,162.150467 86.994354,161.005585 
	C86.049034,162.156708 85.103722,163.307816 83.818428,164.872925 
	C80.876289,164.872925 77.251320,164.872925 73.234268,164.872925 
	C73.171043,163.663101 73.109764,162.490448 73.036819,161.094604 
	C75.755760,161.094604 78.049911,161.094604 80.672394,161.094604 
	C80.672394,158.501724 80.672394,156.094971 80.672394,154.857788 
	C79.088699,152.873306 78.157684,151.408234 76.937843,150.246384 
	C74.989830,148.390930 72.843422,146.744537 70.794960,144.993317 
	C70.173889,144.462357 69.580589,143.895386 69.007973,143.312134 
	C68.269958,142.560394 67.565529,141.775681 66.846634,141.005173 
	C66.231003,141.708359 65.698402,142.515823 64.978996,143.088715 
	C64.051857,143.827026 62.975109,144.377472 61.580070,145.095154 
	C61.197357,145.181458 61.279621,145.254776 61.279621,145.254776 
	C60.359215,143.501343 59.438805,141.747910 58.518398,139.994476 
	C58.744190,138.182449 53.633133,133.287689 60.591675,133.408539 
	C61.258945,134.847153 61.462345,136.744644 61.774986,136.762817 
	C65.374619,136.972061 68.990822,136.896240 72.970108,136.896240 
	C72.871078,135.460693 72.790413,134.291260 72.705856,133.065506 
	C68.526756,133.065506 64.725327,133.065506 60.923904,133.065506 
	C60.923904,131.904282 60.923904,130.743057 60.923904,130.972641 
	C62.956799,128.865906 64.239777,127.536331 65.522751,126.206757 
	C65.220734,125.859375 64.918709,125.511993 64.616692,125.164612 
	C62.322678,125.164612 60.028664,125.164612 58.534180,125.164612 
	C56.906666,126.847031 55.596146,128.201752 54.285625,129.556488 
	C53.922997,129.270737 53.560364,128.984985 53.197731,128.699234 
	C53.197731,126.281410 53.197731,123.863571 53.197731,121.005363 
	C58.246590,121.005363 63.187099,121.005363 68.563866,121.003723 
	C69.000122,121.002083 68.930145,120.929588 68.962509,121.383881 
	C68.994865,124.105949 68.994865,126.373726 68.994865,128.993698 
	C70.574310,128.869095 71.747887,128.776520 73.069855,128.672226 
	C73.069855,125.852341 73.069855,123.390961 73.034882,120.965858 
	C72.999908,121.002129 72.930840,121.075500 72.930840,121.075500 
	C75.803848,120.567215 77.837212,121.097626 76.997688,124.893349 
	C79.688454,124.893349 81.983574,124.893349 83.169853,124.893349 
	C85.096870,126.863136 86.411507,128.206955 87.726143,129.550766 
	C88.141907,129.268127 88.557663,128.985474 88.973419,128.702835 
	C88.973419,126.270416 88.973419,123.837997 88.973419,121.005524 
	C91.602264,121.005524 93.878273,121.005524 96.577133,121.004005 
	C96.999977,121.002487 96.929779,120.930130 96.962303,121.365395 
	C95.979103,123.264420 94.963371,124.728180 93.947639,126.191940 
	C93.599953,126.029976 93.252274,125.868011 92.904587,125.706047 
	C92.904587,127.996758 92.904587,130.287460 92.904587,131.718338 
	C90.073746,134.111237 87.842125,135.997620 85.272400,138.169800 
	C85.272400,139.980728 85.272400,142.388275 85.272400,144.891022 
	C87.830750,144.891022 90.116974,144.891022 93.134483,144.891022 
	C91.027344,140.428284 95.072144,141.349915 97.162849,140.406754 
	C97.162849,136.533203 97.162849,132.912506 97.162849,129.466553 
	C98.577805,129.019638 100.587852,128.878494 100.765282,128.233353 
	C101.240150,126.506622 100.868011,124.144615 103.619980,125.170044 
	C104.633736,125.547791 105.027550,127.589279 105.808731,129.070206 
	C106.750618,129.070206 107.910294,129.070206 109.033722,129.035034 
	C108.997482,128.999847 108.924065,128.930481 108.924065,128.930481 
z"/>
<path fill="#000000" opacity="1.000000" stroke="none" 
	d="
M85.280846,101.255852 
	C85.280846,98.653259 85.280846,96.050674 85.280846,93.080200 
	C87.718918,93.080200 90.126122,93.080200 92.889191,93.080200 
	C92.889191,90.312614 92.889191,87.902763 92.889191,85.492920 
	C93.335457,85.675140 93.781723,85.857361 94.227989,86.039589 
	C95.167473,84.700310 95.823273,82.854324 97.109428,82.134262 
	C99.330887,80.890579 101.335030,79.753860 101.874763,77.058861 
	C102.908447,77.483009 104.128723,77.690834 104.931244,78.383003 
	C106.079788,79.373619 106.923027,80.718239 107.896622,81.911705 
	C108.261925,81.718735 108.627220,81.525764 108.992523,81.332794 
	C108.992523,83.756584 108.992523,86.180374 108.992523,89.005569 
	C111.609299,89.005569 113.880524,89.005569 116.574463,89.004440 
	C116.997177,89.003311 116.923958,88.934326 116.923958,88.934326 
	C116.923958,91.405853 116.923958,93.877380 116.923958,98.097992 
	C119.939949,95.731628 121.970009,94.138832 124.994385,91.765900 
	C124.994385,95.599152 124.994385,97.881668 124.995865,100.582397 
	C124.997345,101.000610 125.069984,100.929825 124.634766,100.962364 
	C122.731636,102.023132 121.263733,103.051361 119.795830,104.079597 
	C119.956673,104.422859 120.117516,104.766129 120.278358,105.109390 
	C117.981987,105.109390 115.685608,105.109390 113.389236,105.109390 
	C113.086311,105.473343 112.783379,105.837296 112.480446,106.201248 
	C113.761032,107.533157 115.041626,108.865059 116.929878,110.828987 
	C116.929878,110.744759 116.929878,111.907463 116.964935,113.035133 
	C116.999992,113.000099 117.070274,112.930191 116.599350,112.962608 
	C111.194626,112.995026 106.260818,112.995026 100.999916,112.995026 
	C101.135918,114.589783 101.236572,115.770058 101.350357,117.104256 
	C104.009346,117.104256 106.301643,117.104256 108.929977,117.104256 
	C108.929977,118.546944 108.929977,119.808563 108.964966,121.035126 
	C108.999947,121.000053 109.070084,120.930077 108.604919,120.962524 
	C104.403091,120.973366 100.666435,120.951752 96.929779,120.930130 
	C96.929779,120.930130 96.999977,121.002487 97.034500,121.039215 
	C97.069023,118.607628 97.069023,116.139313 97.069023,114.587914 
	C94.256325,112.084694 92.098289,110.164101 89.940262,108.243507 
	C86.819405,106.792953 92.606674,101.146713 85.593292,101.095642 
	C85.198509,101.182457 85.280846,101.255852 85.280846,101.255852 
M108.934631,105.618797 
	C106.427231,105.347305 103.919830,105.075813 100.998901,104.759544 
	C101.127899,106.556007 101.211700,107.723091 101.330536,109.378105 
	C104.020378,107.814949 107.857178,111.446510 108.934631,105.618797 
z"/>
<path fill="#000000" opacity="1.000000" stroke="none" 
	d="
M153.076096,85.065742 
	C153.076096,81.248863 153.076096,77.431984 153.076096,73.259361 
	C154.349533,73.086334 155.563644,72.921371 156.857666,72.745544 
	C156.857666,70.227722 156.857666,67.933754 156.857666,63.928722 
	C154.663025,65.723946 153.301315,66.837837 151.939606,67.951721 
	C152.159515,68.270660 152.379410,68.589600 152.599304,68.908539 
	C148.965729,68.908539 145.332153,68.908539 142.806549,68.908539 
	C140.999435,70.719017 139.863815,71.856743 138.728210,72.994469 
	C137.890778,71.903603 137.053345,70.812737 135.781754,69.156326 
	C134.377441,69.156326 132.078949,69.156326 130.654388,69.156326 
	C128.841446,67.118073 127.504471,65.614937 126.167488,64.111801 
	C125.780258,64.314484 125.393028,64.517159 125.005798,64.719841 
	C125.005798,62.425854 125.005798,60.131866 125.005554,57.419273 
	C125.005310,57.000671 124.936165,57.073853 124.936165,57.073853 
	C126.097816,57.073853 127.259476,57.073853 128.421127,57.073853 
	C128.213562,57.362408 128.006012,57.650963 127.798454,57.939518 
	C129.146927,58.971912 130.512314,59.983311 131.834305,61.048573 
	C132.272186,61.401417 132.600647,61.890915 132.975082,62.321465 
	C133.748810,63.211090 134.519775,64.103088 135.291885,64.994110 
	C136.120758,63.897404 136.949631,62.800697 138.193527,61.154873 
	C139.623657,61.154873 141.919159,61.154873 143.771408,61.154873 
	C144.897858,59.537262 145.779221,58.271587 146.660599,57.005905 
	C147.460129,58.047073 148.138596,59.224670 149.102829,60.080189 
	C149.718842,60.626743 151.288147,61.158859 151.513626,60.899815 
	C152.429321,59.847687 152.990707,58.487183 153.829895,56.975315 
	C155.886810,56.975315 158.181732,56.975315 159.469482,56.975315 
	C161.172699,55.052391 162.371078,53.699432 163.569443,52.346474 
	C163.957123,52.600246 164.344788,52.854019 164.732468,53.107792 
	C164.732468,55.536682 164.732468,57.965569 164.732468,60.008457 
	C163.397476,61.039230 162.201508,61.962650 161.005554,62.886070 
	C162.094650,63.870548 163.183762,64.855026 164.842010,66.353981 
	C164.842010,73.008270 164.842010,80.627068 164.842010,89.833862 
	C162.761703,88.291542 161.408340,87.288162 160.054977,86.284782 
	C160.272873,85.854637 160.490768,85.424500 160.708679,84.994354 
	C158.419128,84.994354 156.129593,84.994354 153.421463,84.995575 
	C153.002869,84.996796 153.076096,85.065742 153.076096,85.065742 
z"/>
<path fill="#000000" opacity="1.000000" stroke="none" 
	d="
M133.070450,161.060257 
	C133.070450,158.588455 133.070450,156.116653 133.070450,154.553787 
	C130.231705,152.063339 128.055908,150.154495 125.185318,147.636108 
	C125.185318,145.086563 125.185318,141.474472 125.185318,137.451828 
	C125.843285,137.322449 126.835312,137.353683 127.544304,136.921082 
	C128.187790,136.528442 128.900055,135.623810 128.887695,134.957809 
	C128.875458,134.300507 128.041092,133.613770 127.481255,133.021347 
	C126.520798,132.004990 125.493309,131.051971 124.493958,130.072357 
	C124.819359,129.736328 125.144768,129.400299 125.470169,129.064270 
	C129.084045,129.064270 132.697906,129.064270 136.311783,129.064270 
	C136.153168,128.716995 135.994553,128.369720 135.835938,128.022446 
	C137.289368,127.016869 138.742783,126.011299 140.597717,125.005447 
	C140.999237,125.005180 140.926071,124.936005 140.926071,124.936005 
	C140.926071,126.099907 140.926071,127.263809 140.926071,128.784119 
	C143.490265,128.784119 145.913971,128.784119 147.035797,128.784119 
	C149.222168,131.063339 150.618118,132.518570 152.832962,134.827469 
	C152.832962,137.005859 152.832962,140.635986 152.832962,144.626999 
	C151.750076,144.825470 150.547394,145.045898 148.998291,145.329819 
	C148.998291,147.780533 148.998291,150.199905 148.998291,152.999176 
	C144.876251,152.999176 141.122223,152.999176 138.289368,152.999176 
	C134.858002,155.299347 140.628601,161.090881 133.407837,160.992615 
	C132.997269,160.991196 133.070450,161.060257 133.070450,161.060257 
M144.999710,142.349472 
	C144.999710,139.283188 144.999710,136.216888 144.999710,133.263275 
	C140.672958,133.263275 136.958527,133.263275 133.223022,133.263275 
	C133.223022,137.242340 133.223022,140.954254 133.223022,144.999893 
	C136.202194,144.999893 138.984100,145.160110 141.731583,144.922424 
	C142.858002,144.824982 143.910110,143.868561 144.999710,142.349472 
z"/>
<path fill="#000000" opacity="1.000000" stroke="none" 
	d="
M141.033737,125.041840 
	C141.068237,123.922241 141.068237,122.765976 141.068237,121.304848 
	C138.539444,121.304848 136.142700,121.304848 134.372543,121.304848 
	C132.906403,122.841759 131.605408,124.205544 130.304413,125.569336 
	C129.938522,125.288116 129.572617,125.006905 129.206726,124.725693 
	C129.206726,122.312782 129.206726,119.899864 129.206726,117.114975 
	C131.676727,117.114975 134.084167,117.114975 134.995239,117.114975 
	C137.340042,114.767166 138.756409,113.348991 140.871277,111.231415 
	C140.871277,110.216339 140.871277,107.932793 140.871277,104.058960 
	C138.055176,106.270554 136.025833,107.864273 133.005600,110.236176 
	C133.005600,106.400002 133.005600,104.118263 133.004059,101.418137 
	C133.002518,100.999733 132.930038,101.070213 133.360260,101.037704 
	C137.777634,99.723053 139.709549,96.420441 141.825882,93.070259 
	C142.751404,93.070259 143.910629,93.070259 145.033661,93.035179 
	C144.997482,93.000099 144.924042,92.931061 144.924042,92.931061 
	C144.924042,94.094635 144.924042,95.258202 144.924042,95.510498 
	C147.769577,97.943840 150.003204,99.853912 152.837967,102.278046 
	C152.837967,103.697449 152.837967,106.002525 152.837967,108.708107 
	C150.538818,108.708107 148.124496,108.708107 145.353134,108.708107 
	C145.230545,110.255135 145.137161,111.433632 145.023270,112.870888 
	C147.675980,112.870888 149.970367,112.870888 152.264755,112.870888 
	C152.105133,113.213486 151.945511,113.556076 151.785904,113.898674 
	C153.255890,114.934280 154.725891,115.969887 156.596191,117.004028 
	C156.996506,117.002556 156.923294,116.933472 156.923294,116.933472 
	C156.923294,118.096107 156.923294,119.258743 156.923294,120.421379 
	C156.633072,120.213890 156.342865,120.006409 156.052643,119.798920 
	C155.022614,121.150475 154.078461,122.582146 152.924973,123.818504 
	C152.379456,124.403206 151.385040,124.978256 150.682922,124.885399 
	C150.058838,124.802856 149.540848,123.806343 149.006378,123.187035 
	C148.391769,122.474907 147.810532,121.733978 147.214798,121.005547 
	C146.475952,121.755630 145.818634,122.618683 144.976913,123.226234 
	C143.998123,123.932724 142.857742,124.415367 141.356781,124.965576 
	C140.926071,124.936005 140.999237,125.005180 141.033737,125.041840 
z"/>
<path fill="#000000" opacity="1.000000" stroke="none" 
	d="
M39.888824,17.000000 
	C41.827526,17.000000 43.277687,17.000000 44.848434,17.000000 
	C44.848434,26.441900 44.848434,35.394199 44.848434,44.673622 
	C35.797882,44.673622 26.724545,44.673622 17.324337,44.673622 
	C17.324337,35.793598 17.324337,26.720381 17.324337,17.000000 
	C24.554327,17.000000 31.977306,17.000000 39.888824,17.000000 
M40.942230,40.268375 
	C40.942230,33.979557 40.942230,27.690739 40.942230,21.204363 
	C34.211449,21.204363 27.807110,21.204363 21.201208,21.204363 
	C21.201208,27.795109 21.201208,34.199444 21.201208,40.943691 
	C27.677311,40.943691 33.964710,40.943691 40.942230,40.268375 
z"/>
<path fill="#000000" opacity="1.000000" stroke="none" 
	d="
M141.137177,44.999992 
	C138.043259,45.392918 136.834015,44.708706 136.922638,41.638912 
	C137.153091,33.655735 137.000092,25.661489 137.000092,17.336029 
	C146.182312,17.336029 155.256561,17.336029 164.666595,17.336029 
	C164.666595,26.188042 164.666595,35.261875 164.666595,45.000000 
	C157.131424,45.000000 149.377029,45.000000 141.137177,44.999992 
M147.565857,21.000000 
	C145.461868,21.000000 143.357880,21.000000 141.266022,21.000000 
	C141.266022,27.937029 141.266022,34.340847 141.266022,40.732552 
	C147.939178,40.732552 154.342743,40.732552 160.731140,40.732552 
	C160.731140,34.057331 160.731140,27.653643 160.731140,21.000000 
	C156.494431,21.000000 152.521957,21.000000 147.565857,21.000000 
z"/>
<path fill="#000000" opacity="1.000000" stroke="none" 
	d="
M45.000000,156.948044 
	C45.000000,159.755692 45.000000,162.071655 45.000000,164.693207 
	C35.756840,164.693207 26.684971,164.693207 17.305195,164.693207 
	C17.305195,155.754257 17.305195,146.682327 17.305195,137.303741 
	C26.248816,137.303741 35.320759,137.303741 45.000000,137.303741 
	C45.000000,143.599518 45.000000,150.027939 45.000000,156.948044 
M41.000000,148.549530 
	C41.000000,146.113495 41.000000,143.677475 41.000000,141.272430 
	C34.051540,141.272430 27.647478,141.272430 21.274395,141.272430 
	C21.274395,147.952408 21.274395,154.356567 21.274395,160.723633 
	C27.957077,160.723633 34.360870,160.723633 41.000000,160.723633 
	C41.000000,156.808731 41.000000,153.167847 41.000000,148.549530 
z"/>
<path fill="#000000" opacity="1.000000" stroke="none" 
	d="
M25.034575,69.039093 
	C25.069113,66.592705 25.069113,64.109619 25.069113,61.327946 
	C23.685581,61.118057 22.475388,60.934467 21.150440,60.733471 
	C21.150440,58.256618 21.150440,55.964905 21.150440,51.993568 
	C22.911396,53.504040 23.916346,54.455376 25.015965,55.280567 
	C25.873495,55.924080 27.506859,57.043175 27.671984,56.871338 
	C29.820242,54.635754 31.767672,52.207184 34.455616,49.005390 
	C38.206093,49.005390 43.166912,49.005390 48.563896,49.003830 
	C49.000057,49.002274 48.930031,48.929890 48.962448,49.384819 
	C48.994862,52.133739 48.994862,54.427734 48.994862,56.721725 
	C48.536350,56.348206 48.077839,55.974682 47.619328,55.601162 
	C45.408394,57.397438 43.297287,59.343258 40.938408,60.917912 
	C39.966877,61.566460 38.461189,61.591396 37.200817,61.582062 
	C35.886131,61.572327 34.574284,61.179668 32.929974,60.897606 
	C32.929974,64.097832 32.929974,66.583931 32.929974,69.070023 
	C32.929974,69.070023 33.000023,68.999985 32.583977,68.997467 
	C29.755251,68.973289 27.342577,68.951637 24.929901,68.929985 
	C24.929901,68.929985 25.000036,69.002388 25.034575,69.039093 
z"/>
<path fill="#000000" opacity="1.000000" stroke="none" 
	d="
M152.968414,84.960152 
	C152.933975,87.379997 152.933975,89.836494 152.933975,92.994965 
	C150.586685,92.994965 148.213242,92.994965 145.381927,92.963013 
	C144.924042,92.931061 144.997482,93.000099 145.001251,92.568657 
	C145.005035,88.522301 145.005035,84.907394 145.005035,80.971085 
	C143.380859,81.130836 142.200653,81.246918 140.858978,81.378883 
	C140.858978,84.053780 140.858978,86.346382 140.858978,88.638977 
	C140.567978,88.431877 140.276993,88.224777 139.985992,88.017677 
	C138.601791,89.477394 137.217575,90.937103 135.327957,92.929794 
	C135.248459,92.929794 134.089249,92.929794 132.966248,92.964928 
	C133.002472,93.000061 133.075897,93.069298 133.075897,93.069298 
	C133.075897,89.251999 133.075897,85.434692 133.075897,81.218719 
	C130.430496,81.218719 128.021912,81.218719 126.595680,81.218719 
	C124.098518,78.260979 122.321121,76.155769 119.787766,73.155151 
	C123.717453,73.155151 126.016991,73.155151 128.650452,73.155151 
	C128.842453,74.269524 129.050613,75.477776 129.283524,76.829620 
	C134.356369,76.829620 139.319153,76.829620 143.411835,76.829620 
	C145.106110,75.121765 146.429077,73.788208 147.752045,72.454643 
	C148.168091,72.743294 148.584137,73.031944 149.000183,73.320595 
	C149.000183,76.290901 149.192459,79.277420 148.943878,82.226776 
	C148.714142,84.952621 150.083328,85.265800 152.626617,85.035225 
	C153.076096,85.065742 153.002869,84.996796 152.968414,84.960152 
z"/>
<path fill="#000000" opacity="1.000000" stroke="none" 
	d="
M97.252869,36.721489 
	C95.989838,36.876926 94.726799,37.032368 92.999603,37.244930 
	C92.999603,40.261829 92.813797,43.325657 93.054565,46.355591 
	C93.272873,49.102924 91.789536,49.205170 89.413857,48.996086 
	C88.999847,48.997631 89.069908,49.070087 89.037476,48.603615 
	C89.005051,44.530861 89.005051,40.924580 89.005051,36.994179 
	C87.402565,37.134777 86.223183,37.238251 84.892586,37.354992 
	C84.892586,40.014992 84.892586,42.305847 84.892586,44.930050 
	C83.451828,44.930050 82.190727,44.930050 80.964737,44.965042 
	C80.999855,45.000038 81.069992,45.070118 81.037567,44.618092 
	C81.005142,41.900856 81.005142,39.635647 81.005142,37.176537 
	C79.442940,37.081982 78.186470,37.005928 76.966232,36.965000 
	C77.002449,37.000122 77.075874,37.069336 77.075874,37.069336 
	C77.075874,35.908443 77.075874,34.747551 77.075874,33.816010 
	C75.586624,33.025368 73.544312,32.625816 73.169441,31.610573 
	C72.144577,28.834942 74.471809,29.081715 76.274895,28.806190 
	C76.628723,28.752121 77.214973,26.671459 76.875519,26.323118 
	C76.012672,25.437691 74.686111,25.004147 73.191872,24.199438 
	C73.191872,22.274918 73.191872,19.855305 73.191872,17.216694 
	C75.730194,17.216694 78.134979,17.216694 80.921127,17.216694 
	C80.921127,22.366529 80.921127,27.442896 80.921127,33.000107 
	C85.544945,33.000107 89.817345,33.159504 94.070099,32.939426 
	C96.561356,32.810509 97.391426,33.670277 97.094238,36.402889 
	C97.180130,36.803722 97.252869,36.721489 97.252869,36.721489 
z"/>
<path fill="#000000" opacity="1.000000" stroke="none" 
	d="
M81.069359,48.924065 
	C77.264191,48.924065 73.459015,48.924065 68.640999,48.924065 
	C69.322639,50.588326 69.634163,51.904579 70.352440,52.938152 
	C71.002289,53.873257 72.096207,54.499748 72.994316,55.262321 
	C71.917809,56.102219 70.841301,56.942112 68.994400,58.383072 
	C68.994400,59.587612 68.994400,61.875160 68.995995,64.581253 
	C68.997589,64.999809 69.069893,64.929604 68.656693,64.962273 
	C67.139030,64.973160 66.034576,64.951378 64.930122,64.929596 
	C64.930122,64.929596 65.000015,64.999916 65.002533,64.590630 
	C65.081436,57.364777 59.299938,63.150928 57.100227,59.881409 
	C57.136845,59.427574 57.232048,58.247639 57.341667,56.889076 
	C60.004910,56.889076 62.302425,56.889076 64.599945,56.889076 
	C64.901199,56.532223 65.202454,56.175369 65.503708,55.818512 
	C64.238831,54.478558 62.973949,53.138603 61.069939,51.121578 
	C61.069939,49.890701 61.069939,47.410244 61.034981,44.966003 
	C61.000023,45.002220 60.931114,45.075615 60.931114,45.075615 
	C62.093250,45.075615 63.255386,45.075615 64.177155,45.075615 
	C64.977356,43.581707 65.384529,41.539696 66.401512,41.168522 
	C69.207489,40.144424 68.767914,42.567265 69.232956,44.271477 
	C69.382317,44.818855 71.387466,44.859833 71.823700,44.962711 
	C75.153183,42.710300 69.362312,36.934265 76.631165,37.037209 
	C77.075874,37.069336 77.002449,37.000122 76.998650,37.417068 
	C76.994850,40.099155 76.994850,42.364288 76.994850,44.823341 
	C78.549164,44.917465 79.809578,44.993793 81.069992,45.070118 
	C81.069992,45.070118 80.999855,45.000038 80.997398,45.378250 
	C80.973160,46.860939 80.951378,47.965416 80.964806,49.033688 
	C81.000008,48.997482 81.069359,48.924065 81.069359,48.924065 
z"/>
<path fill="#000000" opacity="1.000000" stroke="none" 
	d="
M57.076065,157.065659 
	C57.076065,155.911179 57.076065,154.756699 57.076065,154.553604 
	C54.262184,152.077316 52.089386,150.165192 49.191872,147.615311 
	C49.191872,143.662537 49.191872,138.594315 49.191872,133.531601 
	C52.659496,133.149155 52.659496,133.149155 53.181438,145.019562 
	C55.519493,145.019562 57.916714,145.019562 60.796776,145.137177 
	C61.279621,145.254776 61.197357,145.181458 61.162663,145.150711 
	C61.127968,146.271408 61.127968,147.422852 61.127968,148.895447 
	C63.566067,148.895447 66.005806,148.895447 68.353233,148.895447 
	C70.124641,152.668015 68.290962,153.502014 65.071686,152.974197 
	C65.071686,157.075134 65.071686,160.693222 65.071686,164.686325 
	C63.721161,164.786194 62.552494,164.872604 62.116875,164.904816 
	C58.881676,162.667938 64.568542,156.945190 57.412266,156.995575 
	C57.002838,156.996658 57.076065,157.065659 57.076065,157.065659 
z"/>
<path fill="#000000" opacity="1.000000" stroke="none" 
	d="
M165.000000,145.909286 
	C165.000000,148.378540 165.000000,150.359207 165.000000,154.071518 
	C162.018616,151.663086 159.948898,149.991119 157.187790,147.760605 
	C157.187790,146.388779 157.187790,144.099075 157.187790,141.436691 
	C158.178070,141.225388 159.369492,140.971176 160.780579,140.670090 
	C160.780579,138.445648 160.780579,136.168442 160.780579,133.485153 
	C159.736038,133.214355 158.437698,132.877777 157.115356,132.534958 
	C157.115356,130.100220 157.115356,127.815025 157.115356,125.265678 
	C159.624863,125.265678 162.032532,125.265678 165.000000,125.265678 
	C165.000000,131.929535 165.000000,138.675125 165.000000,145.909286 
z"/>
<path fill="#000000" opacity="1.000000" stroke="none" 
	d="
M120.934265,29.076092 
	C122.092903,29.076092 123.251541,29.076092 124.190277,29.076092 
	C124.972389,27.589624 125.363937,25.548800 126.376747,25.170271 
	C129.117584,24.145905 128.935760,26.423368 129.190796,28.252632 
	C129.242386,28.622608 130.986526,28.581444 131.694122,29.087843 
	C132.314316,29.531691 132.830170,30.451962 132.907944,31.211376 
	C132.963425,31.753027 132.309311,32.476959 131.807266,32.941746 
	C130.940872,33.743824 129.946487,34.407642 129.005798,35.129475 
	C130.199936,36.038021 131.394073,36.946564 132.892838,38.086887 
	C132.892838,42.527454 132.892838,47.468678 132.892838,52.702267 
	C131.622726,52.702267 130.456299,52.702267 129.068573,52.702267 
	C129.068573,48.902363 129.068573,45.288727 129.068573,42.567513 
	C126.245438,40.073208 124.077278,38.157589 121.005653,35.443737 
	C121.005653,34.410610 121.005653,32.125183 121.004456,29.421312 
	C121.003250,29.002872 120.934265,29.076092 120.934265,29.076092 
z"/>
<path fill="#000000" opacity="1.000000" stroke="none" 
	d="
M125.041969,56.966179 
	C123.914101,56.931683 122.749565,56.931683 121.223755,56.931683 
	C121.223755,59.485806 121.223755,61.908028 121.223755,62.920357 
	C118.181061,66.039917 116.098434,68.175156 113.286377,71.058250 
	C113.286377,67.132629 113.286377,64.393791 113.286377,62.491329 
	C114.764481,60.966599 115.879501,59.816410 116.994514,58.666214 
	C115.869865,57.854195 114.745216,57.042179 113.169418,55.904427 
	C113.169418,54.326275 113.169418,52.028515 113.169418,49.730755 
	C113.416321,49.890747 113.663216,50.050739 113.910118,50.210735 
	C114.942093,48.739513 115.974068,47.268291 117.007957,45.396652 
	C117.009872,44.996231 116.940834,45.069454 116.940834,45.069454 
	C118.099510,45.069454 119.258186,45.069454 120.798882,45.069454 
	C120.904335,47.468739 121.010490,49.883984 121.116646,52.299229 
	C121.397079,52.136589 121.677513,51.973949 121.957947,51.811314 
	C122.970375,53.275108 123.982811,54.738903 124.965706,56.638275 
	C124.936165,57.073853 125.005310,57.000671 125.041969,56.966179 
z"/>
<path fill="#000000" opacity="1.000000" stroke="none" 
	d="
M60.712280,28.732809 
	C60.806553,33.865780 60.900826,38.998753 60.963104,44.603668 
	C60.931114,45.075615 61.000023,45.002220 60.603554,44.998497 
	C59.138622,44.416615 58.009491,43.925808 57.017738,43.237164 
	C55.893574,42.456577 54.892494,41.498734 53.194099,40.080276 
	C53.012634,44.109451 52.903683,46.528542 52.795528,48.929890 
	C51.252453,48.929890 50.091244,48.929890 48.930031,48.929890 
	C48.930031,48.929890 49.000057,49.002274 49.034523,49.038986 
	C49.068993,45.299385 49.068993,41.523075 49.068993,37.416039 
	C50.217384,37.192123 51.402958,36.960957 52.924706,36.664242 
	C52.924706,34.293316 52.924706,31.892252 52.924706,28.990515 
	C55.499001,28.990515 57.739132,28.990515 60.386578,28.899229 
	C60.793888,28.807943 60.712280,28.732809 60.712280,28.732809 
z"/>
<path fill="#000000" opacity="1.000000" stroke="none" 
	d="
M124.924156,108.930786 
	C124.924156,111.414291 124.924156,113.897797 124.924156,116.697556 
	C123.678986,116.885185 122.469780,117.067398 121.070038,117.278328 
	C121.070038,121.083458 121.070038,124.712082 121.070038,130.217804 
	C119.080284,128.495102 118.030472,127.602654 117.000282,126.688080 
	C116.388832,126.145256 115.702454,125.031723 115.237221,125.123642 
	C114.416725,125.285736 113.757477,126.198090 112.998161,126.751701 
	C111.943085,127.520958 110.857994,128.249069 109.354904,128.962631 
	C108.924065,128.930481 108.997482,128.999847 109.001266,128.583939 
	C109.026726,125.755379 109.048401,123.342728 109.070084,120.930077 
	C109.070084,120.930077 108.999947,121.000053 109.394928,121.002625 
	C110.851295,120.596718 112.133820,120.433876 112.923180,119.723244 
	C114.164291,118.605919 115.073235,117.119606 116.122818,115.789528 
	C116.438637,115.992424 116.754456,116.195320 117.070274,116.398216 
	C117.070274,115.242203 117.070274,114.086197 117.070274,112.930191 
	C117.070274,112.930191 116.999992,113.000099 117.393715,113.002640 
	C119.256317,112.005699 120.725197,111.006233 122.194084,110.006767 
	C122.002312,109.694580 121.810547,109.382401 121.618774,109.070221 
	C122.769173,109.070221 123.919563,109.070221 125.033768,109.035095 
	C124.997566,108.999969 124.924156,108.930786 124.924156,108.930786 
z"/>
<path fill="#000000" opacity="1.000000" stroke="none" 
	d="
M117.046524,44.961754 
	C115.920380,44.927277 114.757576,44.927277 113.739067,44.927277 
	C113.027473,43.588650 112.626297,41.543858 111.609940,41.169579 
	C108.822281,40.143005 109.214310,42.534393 108.767731,44.262238 
	C108.627899,44.803272 106.619049,44.861244 106.181671,44.967079 
	C102.836914,42.718861 108.646942,36.941509 101.416298,36.998039 
	C101.007195,37.001286 101.080315,37.070580 101.080315,37.070580 
	C101.080315,35.910641 101.080315,34.750698 101.080315,33.475075 
	C106.235680,33.475075 111.411469,33.475075 116.995636,33.475075 
	C116.995636,36.898144 116.995636,40.517139 116.968231,44.602798 
	C116.940834,45.069454 117.009872,44.996231 117.046524,44.961754 
z"/>
<path fill="#000000" opacity="1.000000" stroke="none" 
	d="
M100.972672,36.964603 
	C100.938141,40.721031 100.938141,44.514141 100.938141,48.622570 
	C102.270256,48.846428 103.465599,49.047298 104.734604,49.260551 
	C104.734604,51.808605 105.695633,55.267315 104.484840,56.395802 
	C103.057106,57.726490 99.749596,57.040318 97.018936,57.246578 
	C97.018936,50.249874 97.018936,43.981964 97.135902,37.217773 
	C97.252869,36.721489 97.180130,36.803722 97.149353,36.838097 
	C98.170815,36.916729 99.223045,36.960991 100.677795,37.037914 
	C101.080315,37.070580 101.007195,37.001286 100.972672,36.964603 
z"/>
<path fill="#000000" opacity="1.000000" stroke="none" 
	d="
M65.060448,28.929304 
	C63.903042,28.945919 62.745640,28.962532 61.150257,28.855976 
	C60.712280,28.732809 60.793888,28.807943 60.828674,28.838375 
	C60.863461,27.712921 60.863461,26.557035 60.863461,25.600784 
	C57.356640,22.917019 51.254932,28.318312 48.212826,21.173416 
	C51.575981,21.173416 53.998356,21.173416 55.652920,21.173416 
	C57.054081,19.379927 57.981552,18.192759 58.909023,17.005589 
	C59.884876,18.104650 60.860725,19.203712 62.376095,20.910412 
	C63.720634,20.910412 66.015312,20.910412 70.153351,20.910412 
	C68.499969,22.892056 67.543800,23.893961 66.762604,25.017523 
	C66.071823,26.011047 65.575920,27.140076 64.992683,28.605883 
	C64.991394,29.002485 65.060448,28.929304 65.060448,28.929304 
z"/>
<path fill="#000000" opacity="1.000000" stroke="none" 
	d="
M80.930367,73.076019 
	C82.092422,73.076019 83.254478,73.076019 84.177910,73.076019 
	C84.976852,71.582588 85.383011,69.540314 86.399757,69.168716 
	C89.202049,68.144547 88.938164,70.498856 89.172058,72.298615 
	C89.213783,72.619713 90.635544,72.639053 91.266815,73.039406 
	C91.937660,73.464867 92.964981,74.281731 92.876152,74.742523 
	C92.717140,75.567383 91.889587,76.301781 91.247917,76.986282 
	C90.259956,78.040184 89.193031,79.020081 88.709297,80.994888 
	C86.416870,80.994888 84.124435,80.994888 81.378082,80.962936 
	C80.924164,80.930977 80.997574,81.000053 81.001312,80.584030 
	C81.026733,77.755363 81.048409,75.342720 81.034912,72.966331 
	C80.999741,73.002586 80.930367,73.076019 80.930367,73.076019 
z"/>
<path fill="#000000" opacity="1.000000" stroke="none" 
	d="
M109.031204,145.039474 
	C109.065674,142.592972 109.065674,140.109802 109.065674,138.740021 
	C111.109711,136.753632 112.556961,135.347214 114.809792,133.157928 
	C115.715973,133.157928 118.016991,133.157928 120.659637,133.157928 
	C120.659637,135.470428 120.659637,137.883759 120.659637,140.707825 
	C118.537079,140.707825 116.128929,140.707825 113.720779,140.707825 
	C113.880363,141.115662 114.039940,141.523499 114.199516,141.931320 
	C112.731636,142.952591 111.263756,143.973846 109.359695,144.964432 
	C108.923523,144.933762 108.996727,145.002823 109.031204,145.039474 
z"/>
<path fill="#000000" opacity="1.000000" stroke="none" 
	d="
M157.030975,117.039207 
	C157.065460,114.591072 157.065460,112.106285 157.065460,109.306541 
	C158.318817,109.116562 159.528305,108.933228 160.929260,108.720871 
	C160.929260,104.918900 160.929260,101.290619 160.929260,97.292290 
	C162.303482,97.203064 163.474777,97.127022 164.835724,97.038658 
	C164.835724,102.381989 164.835724,107.340897 164.835724,111.011559 
	C163.119949,113.118965 162.182785,114.588783 160.926910,115.697601 
	C160.124390,116.406151 158.850601,116.580940 157.355698,116.964249 
	C156.923294,116.933472 156.996506,117.002556 157.030975,117.039207 
z"/>
<path fill="#000000" opacity="1.000000" stroke="none" 
	d="
M68.960884,65.034340 
	C71.397720,65.068871 73.871254,65.068871 76.344795,65.068871 
	C76.165321,65.339066 75.985847,65.609253 75.806374,65.879448 
	C77.129425,66.928223 78.609314,67.836639 79.718941,69.076431 
	C80.427536,69.868149 80.588379,71.150124 80.962585,72.644157 
	C80.930367,73.076019 80.999741,73.002586 80.569702,72.998779 
	C76.403061,72.973343 72.666458,72.951721 68.929863,72.930099 
	C68.929863,72.930099 69.000023,73.000023 69.002541,72.583969 
	C69.026672,69.755150 69.048279,67.342377 69.069893,64.929604 
	C69.069893,64.929604 68.997589,64.999809 68.960884,65.034340 
z"/>
<path fill="#000000" opacity="1.000000" stroke="none" 
	d="
M81.060310,112.929428 
	C79.899460,112.929428 78.738609,112.929428 77.288887,112.929428 
	C77.288887,109.044456 77.288887,105.179199 77.288887,101.019653 
	C79.734436,101.019653 82.024719,101.019653 84.797920,101.137756 
	C85.280846,101.255852 85.198509,101.182457 85.163734,101.151756 
	C85.128960,103.547958 85.128960,105.974861 85.128960,108.401764 
	C84.713341,108.231895 84.297714,108.062027 83.882095,107.892166 
	C82.919403,109.329018 81.956718,110.765869 80.992638,112.602661 
	C80.991249,113.002609 81.060310,112.929428 81.060310,112.929428 
z"/>
<path fill="#000000" opacity="1.000000" stroke="none" 
	d="
M88.965317,48.960922 
	C88.930794,51.409771 88.930794,53.895329 88.930794,56.690384 
	C85.167450,56.690384 81.424461,56.690384 76.160149,56.690384 
	C77.498634,55.099041 78.460342,54.103226 79.242134,52.981976 
	C79.933838,51.989941 80.425262,50.858269 81.037231,49.356155 
	C81.069359,48.924065 81.000008,48.997482 81.415909,49.001263 
	C84.244514,49.026726 86.657211,49.048409 89.069908,49.070087 
	C89.069908,49.070087 88.999847,48.997631 88.965317,48.960922 
z"/>
<path fill="#000000" opacity="1.000000" stroke="none" 
	d="
M91.153458,64.998138 
	C89.977242,63.956123 89.256638,62.915703 88.066292,61.197086 
	C93.061874,61.197086 96.793800,61.197086 100.763901,61.197086 
	C100.763901,63.694187 100.763901,66.091408 100.763901,70.212624 
	C98.570763,68.273178 97.241440,67.097626 95.912117,65.922066 
	C96.108551,65.614624 96.304985,65.307175 96.501419,64.999733 
	C94.870636,64.999733 93.239845,64.999733 91.153458,64.998138 
z"/>
<path fill="#000000" opacity="1.000000" stroke="none" 
	d="
M160.912445,165.000000 
	C158.149017,165.000000 155.856247,165.000000 153.285431,165.000000 
	C153.285431,163.607407 153.285431,162.439407 153.285431,161.066711 
	C155.772766,161.066711 158.050415,161.066711 159.126770,161.066711 
	C161.112976,159.084915 162.426025,157.774780 163.739075,156.464645 
	C164.095963,156.751022 164.452835,157.037384 164.809723,157.323746 
	C164.809723,159.729630 164.809723,162.135498 164.809723,164.999985 
	C163.595581,164.999985 162.489319,164.999985 160.912445,165.000000 
z"/>
<path fill="#000000" opacity="1.000000" stroke="none" 
	d="
M68.923958,104.934326 
	C69.423759,107.793480 68.916618,109.837418 65.129120,108.996758 
	C65.129120,111.669891 65.129120,113.962128 65.129120,116.630676 
	C63.792542,116.756332 62.611748,116.867332 61.005653,117.018318 
	C61.005653,113.086334 61.005653,109.475220 61.005310,105.432533 
	C61.004967,105.000961 60.935806,105.074127 60.935806,105.074127 
	C63.345661,105.051254 65.755516,105.028381 68.581268,105.004410 
	C68.997177,105.003311 68.923958,104.934326 68.923958,104.934326 
z"/>
<path fill="#000000" opacity="1.000000" stroke="none" 
	d="
M91.914001,21.032578 
	C92.615906,22.226702 92.865730,23.392050 93.172707,24.823980 
	C90.231377,24.823980 87.825623,24.823980 85.209862,24.823980 
	C85.209862,22.259274 85.209862,19.856119 85.209862,17.452967 
	C85.512306,17.129370 85.814751,16.805773 86.117195,16.482176 
	C87.081627,17.494333 87.985565,18.575308 89.031578,19.494646 
	C89.738083,20.115585 90.644768,20.508749 91.914001,21.032578 
z"/>
<path fill="#000000" opacity="1.000000" stroke="none" 
	d="
M142.792084,49.001434 
	C143.823578,49.890461 145.030090,51.426277 144.883392,51.568756 
	C142.719666,53.670177 140.376099,55.586422 137.258026,58.242786 
	C137.258026,54.477127 137.258026,52.057701 137.258026,49.000202 
	C138.859512,49.000202 140.598633,49.000202 142.792084,49.001434 
z"/>
<path fill="#000000" opacity="1.000000" stroke="none" 
	d="
M61.041630,104.966461 
	C59.915524,104.931961 58.752754,104.931961 57.295006,104.931961 
	C57.295006,102.516510 57.295006,100.095146 57.295006,97.334213 
	C59.478580,97.334213 61.886364,97.334213 65.790688,97.334213 
	C64.497787,98.889969 63.545006,99.893555 62.765438,101.017296 
	C62.075241,102.012199 61.577774,103.140816 60.965515,104.642265 
	C60.935806,105.074127 61.004967,105.000961 61.041630,104.966461 
z"/>
<path fill="#000000" opacity="1.000000" stroke="none" 
	d="
M132.962830,160.954529 
	C132.928391,162.180725 132.928391,163.443619 132.928391,164.850311 
	C130.313507,164.850311 128.023560,164.850311 125.335358,164.850311 
	C125.239677,163.780716 125.134399,162.603760 124.991348,161.004517 
	C127.608932,161.004517 129.885452,161.004517 132.616211,161.032379 
	C133.070450,161.060257 132.997269,160.991196 132.962830,160.954529 
z"/>
<path fill="#000000" opacity="1.000000" stroke="none" 
	d="
M56.968384,156.960022 
	C56.933929,159.396652 56.933929,161.869919 56.933929,164.706055 
	C55.715534,164.790756 54.537716,164.872635 53.095131,164.972931 
	C53.095131,162.311386 52.955879,160.013031 53.233677,157.766220 
	C53.279400,157.396408 55.155685,157.252930 56.631012,157.035248 
	C57.076065,157.065659 57.002838,156.996658 56.968384,156.960022 
z"/>
<path fill="#000000" opacity="1.000000" stroke="none" 
	d="
M148.964966,162.081635 
	C147.857162,167.446472 144.020370,163.814941 141.330536,165.378113 
	C141.211700,163.723068 141.127899,162.556000 140.998901,160.759537 
	C143.919846,161.075821 146.427246,161.347305 148.964966,162.081635 
z"/>
<path fill="#000000" opacity="1.000000" stroke="none" 
	d="
M80.954575,113.037048 
	C82.180779,113.071480 83.443665,113.071480 84.850342,113.071480 
	C84.850342,115.686554 84.850342,117.976501 84.850342,120.664673 
	C83.781998,120.760223 82.607376,120.865280 81.004524,121.008636 
	C81.004524,118.390991 81.004524,116.114464 81.032417,113.383682 
	C81.060310,112.929428 80.991249,113.002609 80.954575,113.037048 
z"/>
<path fill="#000000" opacity="1.000000" stroke="none" 
	d="
M69.034660,121.038773 
	C69.069199,118.612785 69.069199,116.150108 69.069199,113.317329 
	C70.251762,113.223892 71.425644,113.131134 72.994904,113.007133 
	C72.994904,115.628098 72.994904,117.897011 72.962875,120.620712 
	C72.930840,121.075500 72.999908,121.002129 72.621689,120.998535 
	C71.139030,120.973152 70.034584,120.951370 68.930145,120.929588 
	C68.930145,120.929588 69.000122,121.002083 69.034660,121.038773 
z"/>
<path fill="#000000" opacity="1.000000" stroke="none" 
	d="
M124.960632,101.035583 
	C125.976631,101.043877 127.029343,101.017189 128.437546,100.898888 
	C128.793030,100.807274 128.711349,100.732147 128.711349,100.732147 
	C128.807373,102.639900 128.783401,104.563194 129.027786,106.451744 
	C129.387009,109.227844 127.676628,109.147224 125.371567,108.962891 
	C124.924156,108.930786 124.997566,108.999969 125.001305,108.584000 
	C125.026688,105.755287 125.048332,103.342560 125.069977,100.929825 
	C125.069984,100.929825 124.997345,101.000610 124.960632,101.035583 
z"/>
<path fill="#000000" opacity="1.000000" stroke="none" 
	d="
M69.031631,105.039963 
	C69.066086,102.603333 69.066086,100.130058 69.066086,97.293961 
	C70.284477,97.209259 71.462296,97.127380 72.904869,97.027092 
	C72.904869,99.688606 73.044113,101.986977 72.766319,104.233780 
	C72.720589,104.603592 70.844330,104.747078 69.369003,104.964745 
	C68.923958,104.934326 68.997177,105.003311 69.031631,105.039963 
z"/>
<path fill="#000000" opacity="1.000000" stroke="none" 
	d="
M133.039246,100.964996 
	C131.914169,100.946533 130.752365,100.962814 129.150970,100.855621 
	C128.711349,100.732147 128.793030,100.807274 128.827850,100.837662 
	C128.908569,99.100815 129.148911,97.312019 128.955917,95.571274 
	C128.646820,92.783318 130.311935,92.843742 132.633087,93.037178 
	C133.075897,93.069298 133.002472,93.000061 132.998718,93.416023 
	C132.973312,96.244728 132.951675,98.657471 132.930038,101.070213 
	C132.930038,101.070213 133.002518,100.999733 133.039246,100.964996 
z"/>
<path fill="#000000" opacity="1.000000" stroke="none" 
	d="
M117.031631,89.039963 
	C117.066086,86.603333 117.066086,84.130058 117.066086,81.293938 
	C118.284477,81.209244 119.462296,81.127365 120.904869,81.027092 
	C120.904869,83.688606 121.044106,85.986969 120.766312,88.233780 
	C120.720596,88.603584 118.844330,88.747070 117.369003,88.964737 
	C116.923958,88.934326 116.997177,89.003311 117.031631,89.039963 
z"/>
<path fill="#000000" opacity="1.000000" stroke="none" 
	d="
M64.954720,29.036922 
	C66.180908,29.071362 67.443764,29.071362 68.850372,29.071362 
	C68.850372,31.686657 68.850372,33.976597 68.850372,36.664719 
	C67.780586,36.760365 66.603630,36.865593 65.004532,37.008568 
	C65.004532,34.390911 65.004532,32.114376 65.032486,29.383572 
	C65.060448,28.929304 64.991394,29.002485 64.954720,29.036922 
z"/>
<path fill="#000000" opacity="1.000000" stroke="none" 
	d="
M121.039902,28.968414 
	C118.603279,28.933958 116.130005,28.933958 113.293915,28.933958 
	C113.209221,27.715496 113.127350,26.537676 113.027077,25.095150 
	C115.688629,25.095150 117.987007,24.955906 120.233810,25.233702 
	C120.603607,25.279421 120.747078,27.155703 120.964706,28.631035 
	C120.934265,29.076092 121.003250,29.002872 121.039902,28.968414 
z"/>
<path fill="#000000" opacity="1.000000" stroke="none" 
	d="
M108.929405,20.939653 
	C108.929405,22.198967 108.929405,23.458281 108.929405,24.855595 
	C106.301880,24.855595 104.013405,24.855595 101.331352,24.855595 
	C101.237015,23.775103 101.134506,22.601074 100.995247,21.006031 
	C103.613159,21.006031 105.888306,21.006031 108.583023,21.007370 
	C109.002579,21.008711 108.929405,20.939653 108.929405,20.939653 
z"/>
<path fill="#000000" opacity="1.000000" stroke="none" 
	d="
M109.037018,21.045387 
	C109.071457,19.819187 109.071457,18.556311 109.071457,17.149654 
	C111.686584,17.149654 113.976524,17.149654 116.664673,17.149654 
	C116.760338,18.219364 116.865593,19.396318 117.008598,20.995474 
	C114.390968,20.995474 112.114441,20.995474 109.383652,20.967564 
	C108.929405,20.939653 109.002579,21.008711 109.037018,21.045387 
z"/>
<path fill="#FFFFFF" opacity="1.000000" stroke="none" 
	d="
M48.962448,49.384819 
	C50.091244,48.929890 51.252453,48.929890 52.795528,48.929890 
	C52.903683,46.528542 53.012634,44.109451 53.194099,40.080276 
	C54.892494,41.498734 55.893574,42.456577 57.017738,43.237164 
	C58.009491,43.925808 59.138622,44.416615 60.638512,44.962280 
	C61.069939,47.410244 61.069939,49.890701 61.069939,51.121578 
	C62.973949,53.138603 64.238831,54.478558 65.503708,55.818512 
	C65.202454,56.175369 64.901199,56.532223 64.599945,56.889076 
	C62.302425,56.889076 60.004910,56.889076 57.341667,56.889076 
	C57.232048,58.247639 57.136845,59.427574 57.100227,59.881409 
	C59.299938,63.150928 65.081436,57.364777 65.037567,64.625702 
	C63.905640,65.070061 62.741203,65.070061 61.235477,65.070061 
	C61.235477,67.494148 61.235477,69.920174 61.235477,72.674423 
	C58.499836,72.674423 56.088085,72.674423 54.548580,72.674423 
	C52.881432,71.066406 51.544662,69.777046 50.207893,68.487686 
	C49.844368,68.784485 49.480843,69.081276 49.117317,69.378067 
	C49.117317,71.679832 49.117317,73.981598 49.117317,75.246315 
	C47.022789,77.188316 45.544128,78.559303 44.065464,79.930290 
	C44.265018,80.224625 44.464577,80.518959 44.664135,80.813293 
	C42.240814,80.813293 39.817497,80.813293 37.197052,80.813293 
	C37.197052,78.351112 37.197052,76.064888 37.197052,74.411041 
	C38.790134,72.920593 40.162308,71.636826 41.534481,70.353050 
	C41.262512,69.903763 40.990547,69.454468 40.718578,69.005173 
	C38.424732,69.005173 36.130890,69.005173 33.383507,69.037598 
	C32.929974,66.583931 32.929974,64.097832 32.929974,60.897606 
	C34.574284,61.179668 35.886131,61.572327 37.200817,61.582062 
	C38.461189,61.591396 39.966877,61.566460 40.938408,60.917912 
	C43.297287,59.343258 45.408394,57.397438 47.619328,55.601162 
	C48.077839,55.974682 48.536350,56.348206 48.994862,56.721725 
	C48.994862,54.427734 48.994862,52.133739 48.962448,49.384819 
M42.054485,63.440273 
	C45.532986,64.168930 49.011486,64.897591 53.073891,65.748566 
	C52.867359,63.396976 52.764805,62.229275 52.587395,60.209290 
	C48.764259,61.062687 45.408951,61.811653 42.054485,63.440273 
z"/>
<path fill="#FFFFFF" opacity="1.000000" stroke="none" 
	d="
M65.046005,84.962219 
	C63.929272,84.927727 62.775879,84.927727 62.164024,84.927727 
	C61.021706,86.514763 60.129166,87.754776 59.236629,88.994789 
	C58.469231,87.932434 57.885395,86.624519 56.883640,85.875656 
	C55.848270,85.101662 54.406891,84.870781 53.119400,84.393524 
	C53.119400,82.081314 53.119400,79.801598 53.119400,75.637032 
	C55.033077,77.504791 56.004852,78.484360 57.012779,79.425201 
	C57.607079,79.979950 58.376755,80.988586 58.857948,80.878319 
	C59.659988,80.694542 60.309132,79.793236 60.994732,79.163635 
	C61.967369,78.270432 62.914688,77.349648 63.872829,76.440659 
	C64.247047,76.737610 64.621269,77.034561 64.995491,77.331512 
	C64.995491,79.608864 64.995491,81.886223 64.967865,84.616745 
	C64.940231,85.069923 65.009338,84.996719 65.046005,84.962219 
z"/>
<path fill="#FFFFFF" opacity="1.000000" stroke="none" 
	d="
M25.034952,93.043015 
	C25.069468,91.915016 25.069468,90.750374 25.069468,89.360207 
	C23.736242,89.142792 22.506609,88.942268 21.152727,88.721489 
	C21.152727,86.292404 21.152727,83.993347 21.152727,80.080391 
	C23.978451,82.345375 26.059303,84.013298 28.634394,86.077385 
	C27.308506,87.751625 32.371937,92.513634 25.371655,92.966309 
	C24.927231,92.937263 25.000437,93.006371 25.034952,93.043015 
z"/>
<path fill="#FFFFFF" opacity="1.000000" stroke="none" 
	d="
M68.962402,73.374214 
	C72.666458,72.951721 76.403061,72.973343 80.604874,72.962524 
	C81.048409,75.342720 81.026733,77.755363 81.037521,80.619095 
	C78.688950,80.887062 75.274216,81.932808 76.860497,78.022720 
	C74.659752,74.885719 68.962837,80.579933 68.962402,73.374214 
z"/>
<path fill="#FFFFFF" opacity="1.000000" stroke="none" 
	d="
M36.999847,120.080078 
	C36.999981,121.839836 36.999981,123.134583 36.999981,124.783516 
	C35.644112,124.845306 34.477619,124.898468 33.148796,124.959030 
	C33.148796,122.277443 33.148796,120.013321 33.148796,117.419479 
	C35.048084,116.962341 37.197857,115.817192 36.999847,120.080078 
z"/>
<path fill="#FFFFFF" opacity="1.000000" stroke="none" 
	d="
M24.962421,69.373810 
	C27.342577,68.951637 29.755251,68.973289 32.619015,68.962463 
	C33.070103,70.084435 33.070103,71.238892 33.070103,73.143379 
	C30.311884,71.449135 25.734221,76.544701 24.962421,69.373810 
z"/>
<path fill="#FFFFFF" opacity="1.000000" stroke="none" 
	d="
M68.656693,64.962273 
	C69.048279,67.342377 69.026672,69.755150 69.037537,72.619019 
	C67.813538,72.994011 66.557068,72.917908 64.994858,72.823280 
	C64.994858,70.364166 64.994858,68.098984 64.962494,65.381699 
	C66.034576,64.951378 67.139030,64.973160 68.656693,64.962273 
z"/>
<path fill="#FFFFFF" opacity="1.000000" stroke="none" 
	d="
M108.604912,120.962524 
	C109.048401,123.342728 109.026726,125.755379 109.037506,128.619110 
	C107.910294,129.070206 106.750618,129.070206 105.808731,129.070206 
	C105.027550,127.589279 104.633736,125.547791 103.619980,125.170044 
	C100.868011,124.144615 101.240150,126.506622 100.765282,128.233353 
	C100.587852,128.878494 98.577805,129.019638 97.162849,129.466553 
	C97.162849,132.912506 97.162849,136.533203 97.162849,140.406754 
	C95.072144,141.349915 91.027344,140.428284 93.134483,144.891022 
	C90.116974,144.891022 87.830750,144.891022 85.272400,144.891022 
	C85.272400,142.388275 85.272400,139.980728 85.272400,138.169800 
	C87.842125,135.997620 90.073746,134.111237 92.904587,131.718338 
	C92.904587,130.287460 92.904587,127.996758 92.904587,125.706047 
	C93.252274,125.868011 93.599953,126.029976 93.947639,126.191940 
	C94.963371,124.728180 95.979103,123.264420 96.962303,121.365402 
	C100.666435,120.951752 104.403091,120.973366 108.604912,120.962524 
z"/>
<path fill="#FFFFFF" opacity="1.000000" stroke="none" 
	d="
M104.966255,144.957642 
	C104.954506,148.047104 104.797127,151.188126 105.053795,154.294922 
	C105.279938,157.032379 103.853241,157.238998 101.411026,156.992676 
	C100.997375,156.991257 101.070564,157.060318 101.070564,157.060318 
	C101.070564,155.900589 101.070564,154.740860 101.070564,153.207947 
	C98.528046,153.095154 96.110046,152.987869 92.340889,152.820648 
	C93.342583,151.242233 93.956749,150.043396 94.790054,149.023621 
	C95.701027,147.908798 96.814667,146.959595 98.777046,145.004730 
	C99.590706,145.004730 101.878456,145.004730 104.620018,145.033997 
	C105.073822,145.063248 105.000633,144.994308 104.966255,144.957642 
z"/>
<path fill="#FFFFFF" opacity="1.000000" stroke="none" 
	d="
M60.960556,133.031097 
	C64.725327,133.065506 68.526756,133.065506 72.705856,133.065506 
	C72.790413,134.291260 72.871078,135.460693 72.970108,136.896240 
	C68.990822,136.896240 65.374619,136.972061 61.774986,136.762817 
	C61.462345,136.744644 61.258945,134.847153 61.035469,133.373047 
	C61.066128,132.923477 60.997204,132.996674 60.960556,133.031097 
z"/>
<path fill="#FFFFFF" opacity="1.000000" stroke="none" 
	d="
M100.962936,156.954590 
	C100.928505,158.180786 100.928505,159.443665 100.928505,160.850342 
	C98.313446,160.850342 96.023499,160.850342 93.335335,160.850342 
	C93.239670,159.780670 93.134415,158.603714 92.991394,157.004532 
	C95.608994,157.004532 97.885529,157.004532 100.616310,157.032425 
	C101.070564,157.060318 100.997375,156.991257 100.962936,156.954590 
z"/>
<path fill="#FFFFFF" opacity="1.000000" stroke="none" 
	d="
M68.962509,121.383881 
	C70.034584,120.951370 71.139030,120.973152 72.656662,120.962265 
	C73.069855,123.390961 73.069855,125.852341 73.069855,128.672226 
	C71.747887,128.776520 70.574310,128.869095 68.994865,128.993698 
	C68.994865,126.373726 68.994865,124.105949 68.962509,121.383881 
z"/>
<path fill="#FFFFFF" opacity="1.000000" stroke="none" 
	d="
M116.599350,112.962608 
	C117.070274,114.086197 117.070274,115.242203 117.070274,116.398216 
	C116.754456,116.195320 116.438637,115.992424 116.122818,115.789528 
	C115.073235,117.119606 114.164291,118.605919 112.923180,119.723244 
	C112.133820,120.433876 110.851295,120.596718 109.359947,121.037697 
	C108.929977,119.808563 108.929977,118.546944 108.929977,117.104256 
	C106.301643,117.104256 104.009346,117.104256 101.350357,117.104256 
	C101.236572,115.770058 101.135918,114.589783 100.999916,112.995026 
	C106.260818,112.995026 111.194626,112.995026 116.599350,112.962608 
z"/>
<path fill="#FFFFFF" opacity="1.000000" stroke="none" 
	d="
M124.634758,100.962364 
	C125.048332,103.342560 125.026688,105.755287 125.037506,108.619125 
	C123.919563,109.070221 122.769173,109.070221 121.618774,109.070221 
	C121.810547,109.382401 122.002312,109.694580 122.194084,110.006767 
	C120.725197,111.006233 119.256317,112.005699 117.358658,113.037674 
	C116.929878,111.907463 116.929878,110.744759 116.929878,110.828987 
	C115.041626,108.865059 113.761032,107.533157 112.480446,106.201248 
	C112.783379,105.837296 113.086311,105.473343 113.389236,105.109390 
	C115.685608,105.109390 117.981987,105.109390 120.278358,105.109390 
	C120.117516,104.766129 119.956673,104.422859 119.795830,104.079597 
	C121.263733,103.051361 122.731636,102.023132 124.634758,100.962364 
z"/>
<path fill="#FFFFFF" opacity="1.000000" stroke="none" 
	d="
M108.964966,106.081635 
	C107.857178,111.446510 104.020378,107.814949 101.330536,109.378105 
	C101.211700,107.723091 101.127899,106.556007 100.998901,104.759544 
	C103.919830,105.075813 106.427231,105.347305 108.964966,106.081635 
z"/>
<path fill="#FFFFFF" opacity="1.000000" stroke="none" 
	d="
M144.997864,142.826187 
	C143.910110,143.868561 142.858002,144.824982 141.731583,144.922424 
	C138.984100,145.160110 136.202194,144.999893 133.223022,144.999893 
	C133.223022,140.954254 133.223022,137.242340 133.223022,133.263275 
	C136.958527,133.263275 140.672958,133.263275 144.999710,133.263275 
	C144.999710,136.216888 144.999710,139.283188 144.997864,142.826187 
z"/>
<path fill="#FFFFFF" opacity="1.000000" stroke="none" 
	d="
M133.360260,101.037704 
	C132.951675,98.657471 132.973312,96.244728 132.962494,93.380890 
	C134.089249,92.929794 135.248459,92.929794 135.327957,92.929794 
	C137.217575,90.937103 138.601791,89.477394 139.985992,88.017677 
	C140.276993,88.224777 140.567978,88.431877 140.858978,88.638977 
	C140.858978,86.346382 140.858978,84.053780 140.858978,81.378883 
	C142.200653,81.246918 143.380859,81.130836 145.005035,80.971085 
	C145.005035,84.907394 145.005035,88.522301 145.037445,92.603737 
	C143.910629,93.070259 142.751404,93.070259 141.825882,93.070259 
	C139.709549,96.420441 137.777634,99.723053 133.360260,101.037704 
z"/>
<path fill="#FFFFFF" opacity="1.000000" stroke="none" 
	d="
M40.597172,40.606033 
	C33.964710,40.943691 27.677311,40.943691 21.201208,40.943691 
	C21.201208,34.199444 21.201208,27.795109 21.201208,21.204363 
	C27.807110,21.204363 34.211449,21.204363 40.942230,21.204363 
	C40.942230,27.690739 40.942230,33.979557 40.597172,40.606033 
M36.942390,25.737663 
	C33.013214,25.419807 29.084034,25.101952 25.293282,24.795294 
	C25.293282,29.387747 25.293282,33.103455 25.293282,36.747810 
	C29.304502,36.747810 33.018032,36.747810 36.996029,36.747810 
	C36.996029,33.231762 36.996029,29.964573 36.942390,25.737663 
z"/>
<path fill="#FFFFFF" opacity="1.000000" stroke="none" 
	d="
M148.057663,21.000000 
	C152.521957,21.000000 156.494431,21.000000 160.731140,21.000000 
	C160.731140,27.653643 160.731140,34.057331 160.731140,40.732552 
	C154.342743,40.732552 147.939178,40.732552 141.266022,40.732552 
	C141.266022,34.340847 141.266022,27.937029 141.266022,21.000000 
	C143.357880,21.000000 145.461868,21.000000 148.057663,21.000000 
M145.000000,29.563244 
	C145.000000,31.970768 145.000000,34.378292 145.000000,36.760056 
	C149.278152,36.760056 152.990997,36.760056 156.800385,36.760056 
	C156.800385,32.806469 156.800385,29.095102 156.800385,25.000107 
	C153.853119,25.000107 151.068893,25.215816 148.333527,24.942499 
	C145.290955,24.638489 144.608688,26.023684 145.000000,29.563244 
z"/>
<path fill="#FFFFFF" opacity="1.000000" stroke="none" 
	d="
M41.000000,149.038239 
	C41.000000,153.167847 41.000000,156.808731 41.000000,160.723633 
	C34.360870,160.723633 27.957077,160.723633 21.274395,160.723633 
	C21.274395,154.356567 21.274395,147.952408 21.274395,141.272430 
	C27.647478,141.272430 34.051540,141.272430 41.000000,141.272430 
	C41.000000,143.677475 41.000000,146.113495 41.000000,149.038239 
M31.473419,145.000000 
	C29.393822,145.000000 27.314224,145.000000 25.229290,145.000000 
	C25.229290,149.257202 25.229290,152.968735 25.229290,156.636536 
	C29.295940,156.636536 33.121769,156.636536 36.853268,156.636536 
	C36.853268,152.677856 36.853268,149.084564 36.853268,145.000000 
	C35.288193,145.000000 33.862438,145.000000 31.473419,145.000000 
z"/>
<path fill="#FFFFFF" opacity="1.000000" stroke="none" 
	d="
M89.037476,48.603615 
	C86.657211,49.048409 84.244514,49.026726 81.380707,49.037468 
	C80.951378,47.965416 80.973160,46.860939 80.962280,45.343254 
	C82.190727,44.930050 83.451828,44.930050 84.892586,44.930050 
	C84.892586,42.305847 84.892586,40.014992 84.892586,37.354992 
	C86.223183,37.238251 87.402565,37.134777 89.005051,36.994179 
	C89.005051,40.924580 89.005051,44.530861 89.037476,48.603615 
z"/>
<path fill="#FFFFFF" opacity="1.000000" stroke="none" 
	d="
M81.037567,44.618092 
	C79.809578,44.993793 78.549164,44.917465 76.994850,44.823341 
	C76.994850,42.364288 76.994850,40.099155 76.962433,37.381950 
	C78.186470,37.005928 79.442940,37.081982 81.005142,37.176537 
	C81.005142,39.635647 81.005142,41.900856 81.037567,44.618092 
z"/>
<path fill="#000000" opacity="1.000000" stroke="none" 
	d="
M42.054066,63.000446 
	C45.408951,61.811653 48.764259,61.062687 52.587395,60.209290 
	C52.764805,62.229275 52.867359,63.396976 53.073891,65.748566 
	C49.011486,64.897591 45.532986,64.168930 42.054066,63.000446 
z"/>
<path fill="#000000" opacity="1.000000" stroke="none" 
	d="
M36.969208,26.217525 
	C36.996029,29.964573 36.996029,33.231762 36.996029,36.747810 
	C33.018032,36.747810 29.304502,36.747810 25.293282,36.747810 
	C25.293282,33.103455 25.293282,29.387747 25.293282,24.795294 
	C29.084034,25.101952 33.013214,25.419807 36.969208,26.217525 
z"/>
<path fill="#000000" opacity="1.000000" stroke="none" 
	d="
M145.000000,29.086752 
	C144.608688,26.023684 145.290955,24.638489 148.333527,24.942499 
	C151.068893,25.215816 153.853119,25.000107 156.800385,25.000107 
	C156.800385,29.095102 156.800385,32.806469 156.800385,36.760056 
	C152.990997,36.760056 149.278152,36.760056 145.000000,36.760056 
	C145.000000,34.378292 145.000000,31.970768 145.000000,29.086752 
z"/>
<path fill="#000000" opacity="1.000000" stroke="none" 
	d="
M31.955051,145.000000 
	C33.862438,145.000000 35.288193,145.000000 36.853268,145.000000 
	C36.853268,149.084564 36.853268,152.677856 36.853268,156.636536 
	C33.121769,156.636536 29.295940,156.636536 25.229290,156.636536 
	C25.229290,152.968735 25.229290,149.257202 25.229290,145.000000 
	C27.314224,145.000000 29.393822,145.000000 31.955051,145.000000 
z"/>
</svg>