<svg version="1.1" id="Layer_1" xmlns="http://www.w3.org/2000/svg" xmlns:xlink="http://www.w3.org/1999/xlink" x="0px" y="0px"
	 width="100%" viewBox="0 0 90 90" enable-background="new 0 0 90 90" xml:space="preserve">
<path fill="#FFFFFF" opacity="1.000000" stroke="none" 
	d="
M1.000000,30.000000 
	C1.000000,20.000002 1.000000,10.500004 1.000000,1.000004 
	C30.999992,1.000003 60.999985,1.000003 90.999985,1.000001 
	C90.999985,30.999987 90.999985,60.999973 90.999992,90.999969 
	C61.000019,90.999985 31.000036,90.999985 1.000027,90.999992 
	C1.000000,70.833336 1.000000,50.666668 1.000000,30.000000 
M30.232906,15.007238 
	C26.063190,15.570499 24.193161,19.862682 26.181059,25.627344 
	C26.738605,23.689875 27.123369,22.352823 27.523848,20.961163 
	C28.893785,21.718576 29.987885,22.323486 31.006287,23.752792 
	C31.584829,25.369497 32.163372,26.986202 32.742973,28.605862 
	C31.516495,28.933020 30.240959,29.273266 28.965424,29.613510 
	C28.974092,29.897934 28.982763,30.182358 28.991434,30.466782 
	C30.342445,30.823116 31.693459,31.179451 32.673531,31.437948 
	C31.793131,33.516613 31.111786,35.125298 30.093729,37.528980 
	C26.991873,35.880760 23.864182,34.218811 20.542681,32.453880 
	C21.771872,31.153610 22.456427,30.429468 23.485792,29.340578 
	C19.055538,28.576008 15.199814,27.910589 11.065010,27.197008 
	C11.065010,28.182922 10.654036,29.653578 11.133661,30.051928 
	C13.687066,32.172642 12.844939,33.516674 11.263519,36.080475 
	C9.451396,39.018295 9.270012,42.961998 8.380154,46.468697 
	C8.873120,46.381432 9.366087,46.294163 9.859054,46.206898 
	C10.904055,47.074757 11.949057,47.942619 12.994059,48.810478 
	C12.066259,49.551468 10.909338,50.136871 10.272172,51.075211 
	C9.571301,52.107368 9.348534,53.464176 8.917470,54.679543 
	C9.380078,54.923424 9.842687,55.167309 10.305294,55.411194 
	C13.271209,52.250534 16.237123,49.089874 19.038116,46.104965 
	C18.140738,45.010181 17.545591,44.284119 16.643143,43.183151 
	C19.088797,43.183151 20.866007,43.183151 22.819981,43.183151 
	C22.819981,45.135807 22.819981,46.906315 22.819981,48.063911 
	C20.573725,49.393299 18.707685,50.497665 17.398745,51.272327 
	C18.139427,53.398827 18.682192,54.957104 19.432777,57.112034 
	C16.786411,57.112034 15.027497,57.112034 12.931004,57.112034 
	C12.931004,59.910744 12.931004,62.358932 12.931004,64.605858 
	C11.320988,65.023232 10.110427,65.337051 8.899866,65.650871 
	C8.962584,66.316994 9.025301,66.983116 9.088018,67.649239 
	C13.679007,64.588539 18.237713,67.518867 22.289881,66.948364 
	C22.080212,62.876888 21.897150,59.322079 21.758621,56.632050 
	C23.306787,53.263783 24.644812,50.352715 26.171356,47.031487 
	C27.807913,47.031487 30.108974,47.031487 32.432369,47.031487 
	C32.904419,45.531593 33.323284,44.200691 33.742149,42.869789 
	C34.040554,42.924034 34.338959,42.978283 34.637363,43.032532 
	C34.899651,44.348763 35.161934,45.664993 35.529400,47.509026 
	C38.489895,45.238445 40.977634,43.330452 44.169914,40.882103 
	C44.912762,42.092800 46.103951,43.729321 46.813560,45.553207 
	C46.908760,45.797897 44.573029,46.988369 42.884724,48.038307 
	C43.125656,48.749523 43.385574,49.919670 43.900856,50.963787 
	C45.575558,54.357262 47.343723,57.704613 48.229725,61.005337 
	C46.761330,61.999088 45.292931,62.992840 44.380749,63.610165 
	C38.907288,62.485039 33.204380,61.312744 26.883789,60.013485 
	C27.111483,62.548138 27.217056,63.723381 27.290638,64.542480 
	C29.255693,63.967941 30.917860,63.481960 32.580025,62.995979 
	C28.482353,68.244141 28.482353,68.244141 30.199213,73.004684 
	C24.599926,74.066246 28.585373,68.154945 25.967499,66.896774 
	C23.611940,73.930237 25.478632,77.367310 30.930525,76.364616 
	C30.930525,75.216568 30.930525,74.068527 31.694813,72.989891 
	C32.470081,72.354263 33.245354,71.718628 34.289658,70.862419 
	C36.806541,73.822594 39.303825,76.759712 42.114429,80.065331 
	C39.526485,80.923775 38.203938,81.362480 35.862991,82.138992 
	C40.559029,84.180824 43.907719,81.260712 47.801670,82.696198 
	C51.589890,84.092712 56.295944,82.999489 60.226017,82.999489 
	C61.197704,80.904160 61.991116,79.193253 62.784527,77.482353 
	C62.584827,77.141304 62.385128,76.800255 62.185429,76.459206 
	C59.901398,77.924728 57.617371,79.390259 56.030682,80.408348 
	C54.775383,76.907089 53.488392,73.317444 52.019165,69.219513 
	C52.527157,68.470032 53.728603,66.697456 55.707214,64.990028 
	C57.306316,64.608276 58.905422,64.226532 60.965889,63.734646 
	C61.708050,59.898376 62.615570,55.207340 63.572678,50.260010 
	C61.544552,50.052917 60.453003,49.941463 59.022762,49.795422 
	C59.022762,48.224422 59.022762,46.802776 59.022762,46.224091 
	C57.259487,44.962784 55.295238,44.285950 55.146141,43.326920 
	C54.443512,38.807484 51.336533,39.066925 48.036102,38.971546 
	C44.991806,38.883579 41.760914,38.884991 38.968601,37.868259 
	C34.236481,36.145203 33.534409,31.647068 36.910519,27.757406 
	C36.240223,27.049841 35.569923,26.342276 34.499134,25.211948 
	C39.047070,25.211948 42.919456,25.211948 46.286957,25.211948 
	C47.111774,22.095369 47.720558,19.795071 48.415478,17.169310 
	C46.353191,17.076893 43.820972,16.963417 40.958050,16.835121 
	C40.958050,14.120429 40.958050,11.684094 40.958050,8.668038 
	C39.350529,9.122906 38.215416,9.444098 37.080303,9.765291 
	C37.452023,10.856782 38.122799,11.946132 38.130634,13.040229 
	C38.145092,15.060322 37.851070,17.096062 37.529964,19.100355 
	C37.318993,20.417233 36.835152,21.690395 36.317123,23.542160 
	C35.280113,22.343567 34.642902,21.607065 34.212254,21.109312 
	C32.911053,21.889090 31.925293,22.479834 30.995544,22.170792 
	C30.978579,19.764854 30.961613,17.358915 31.720284,14.991500 
	C32.880444,13.944082 34.040604,12.896665 35.278389,11.779161 
	C31.450478,9.449842 28.198565,9.677364 24.941822,11.804326 
	C27.189318,13.008201 29.138395,14.052227 30.232906,15.007238 
M72.290611,47.010281 
	C67.064102,51.861053 67.064102,51.861053 67.775291,55.081905 
	C68.689957,54.323635 69.529747,53.627445 70.369530,52.931259 
	C70.813843,53.325226 71.258148,53.719196 71.702454,54.113167 
	C70.332115,55.734997 68.992508,57.384201 67.580551,58.968956 
	C66.654312,60.008541 65.623520,60.954971 64.639549,61.943127 
	C65.030518,62.259327 65.421486,62.575531 65.812454,62.891735 
	C67.592033,62.410809 69.537285,57.689545 70.267532,63.014019 
	C67.952705,63.967659 65.637878,64.921295 64.442909,65.413582 
	C63.880432,67.225143 63.538185,68.533615 63.069954,69.795341 
	C61.840626,73.107986 64.419029,76.881027 68.074287,76.988335 
	C70.210800,77.051056 72.350655,76.999763 74.587601,76.999763 
	C74.914314,75.584198 74.917732,74.205528 75.522896,73.182968 
	C78.169380,68.711121 77.379524,66.604256 72.384613,64.921516 
	C71.754753,64.709320 71.417076,63.629833 71.702415,62.992058 
	C73.084641,62.569149 74.466866,62.146240 75.849091,61.723331 
	C76.016594,62.091682 76.184105,62.460037 76.351616,62.828392 
	C77.236717,61.844242 78.121819,60.860096 79.232437,59.625191 
	C77.048546,58.325966 75.069641,57.148693 72.505699,55.623371 
	C74.259796,55.210373 75.546509,54.907417 77.815262,54.373238 
	C76.020668,51.643715 74.472458,49.288925 73.770660,46.995106 
	C77.311790,47.830967 77.081825,45.357418 77.955627,43.010693 
	C79.552948,43.573105 81.150276,44.135517 82.611542,44.650021 
	C84.493721,38.755379 80.841919,33.031269 82.653008,27.632114 
	C77.307198,29.298521 72.391090,30.830978 67.694069,32.295143 
	C66.237236,31.309902 64.579742,30.188965 62.985920,28.239578 
	C62.109657,26.109776 61.233398,23.979971 60.125168,21.286356 
	C62.427822,21.286356 63.621708,21.286356 64.752586,21.286356 
	C64.990875,23.414684 65.196327,25.249763 65.401779,27.084845 
	C66.055481,26.974302 66.709183,26.863758 67.362885,26.753216 
	C66.639290,22.135778 65.915695,17.518343 65.290695,13.530046 
	C59.870518,15.177816 55.512375,16.502720 51.265705,17.793736 
	C52.101418,19.421398 53.007874,21.186834 54.046848,23.210373 
	C54.728474,22.358435 55.263760,21.689404 55.799042,21.020372 
	C55.390926,21.509329 54.982811,21.998285 54.574696,22.487240 
	C56.181786,22.900665 57.788879,23.314089 60.361935,23.976007 
	C54.637276,26.185072 57.390530,28.100042 58.466160,29.446171 
	C57.891125,31.454344 57.435467,33.045612 56.979813,34.636879 
	C57.344074,34.768822 57.708336,34.900761 58.072598,35.032703 
	C59.736698,32.996986 61.400799,30.961267 63.005051,29.752579 
	C63.384563,30.843575 63.487785,32.174915 64.191505,32.983887 
	C67.210648,36.454578 73.805061,36.457237 78.578453,33.127331 
	C78.149643,36.532032 77.724716,39.905926 76.408989,43.018715 
	C75.695541,41.086586 74.982094,39.154457 74.174736,36.968006 
	C70.258446,42.257000 65.579094,37.046642 61.103767,37.010139 
	C60.984989,37.420235 60.866215,37.830330 60.747437,38.240425 
	C62.671646,39.460030 64.595856,40.679634 66.842583,42.103661 
	C66.977638,43.311237 67.182030,45.138802 67.386421,46.966362 
	C67.726593,47.040077 68.066772,47.113792 68.406944,47.187504 
	C69.631149,45.125103 70.855354,43.062702 72.665504,40.013168 
	C72.837746,43.046738 72.952148,45.061695 72.290611,47.010281 
M9.000019,12.631120 
	C9.000019,16.052658 9.000019,19.474197 9.000019,22.663378 
	C14.082281,22.663378 18.488768,22.663378 22.660210,22.663378 
	C22.660210,17.911499 22.660210,13.504889 22.660210,9.000245 
	C18.828465,9.000245 15.317771,8.802200 11.855028,9.122528 
	C10.833786,9.216999 9.948094,10.776780 9.000019,12.631120 
M72.631126,22.999981 
	C76.052666,22.999981 79.474205,22.999981 82.663376,22.999981 
	C82.663376,17.917711 82.663376,13.511225 82.663376,9.339792 
	C77.913612,9.339792 73.505608,9.339792 69.000244,9.339792 
	C69.000244,13.171540 68.802200,16.682236 69.122528,20.144979 
	C69.216995,21.166220 70.776779,22.051908 72.631126,22.999981 
M9.741980,69.057373 
	C9.397489,73.567551 9.052997,78.077728 8.692971,82.791290 
	C13.817635,82.791290 18.223206,82.791290 22.788052,82.791290 
	C22.788052,78.175659 22.788052,73.770065 22.788052,69.003960 
	C18.625809,69.003960 14.665717,69.003960 9.741980,69.057373 
M79.003113,73.370544 
	C80.049889,74.651405 81.096664,75.932266 82.773438,77.984001 
	C82.773438,72.223244 82.773438,67.677475 82.773438,63.121571 
	C79.472855,63.286362 77.751396,65.192307 79.215828,66.169777 
	C83.116776,68.773552 79.689545,70.479752 79.003113,73.370544 
z"/>
<path fill="#000000" opacity="1.000000" stroke="none" 
	d="
M49.075909,61.069717 
	C47.343723,57.704613 45.575558,54.357262 43.900856,50.963787 
	C43.385574,49.919670 43.125656,48.749523 42.884724,48.038307 
	C44.573029,46.988369 46.908760,45.797897 46.813560,45.553207 
	C46.103951,43.729321 44.912762,42.092800 44.169914,40.882103 
	C40.977634,43.330452 38.489895,45.238445 35.529400,47.509026 
	C35.161934,45.664993 34.899651,44.348763 34.637363,43.032532 
	C34.338959,42.978283 34.040554,42.924034 33.742149,42.869789 
	C33.323284,44.200691 32.904419,45.531593 32.432369,47.031487 
	C30.108974,47.031487 27.807913,47.031487 26.171356,47.031487 
	C24.644812,50.352715 23.306787,53.263783 21.758621,56.632050 
	C21.897150,59.322079 22.080212,62.876888 22.289881,66.948364 
	C18.237713,67.518867 13.679007,64.588539 9.088018,67.649239 
	C9.025301,66.983116 8.962584,66.316994 8.899866,65.650871 
	C10.110427,65.337051 11.320988,65.023232 12.931004,64.605858 
	C12.931004,62.358932 12.931004,59.910744 12.931004,57.112034 
	C15.027497,57.112034 16.786411,57.112034 19.432777,57.112034 
	C18.682192,54.957104 18.139427,53.398827 17.398745,51.272327 
	C18.707685,50.497665 20.573725,49.393299 22.819981,48.063911 
	C22.819981,46.906315 22.819981,45.135807 22.819981,43.183151 
	C20.866007,43.183151 19.088797,43.183151 16.643143,43.183151 
	C17.545591,44.284119 18.140738,45.010181 19.038116,46.104965 
	C16.237123,49.089874 13.271209,52.250534 10.305294,55.411194 
	C9.842687,55.167309 9.380078,54.923424 8.917470,54.679543 
	C9.348534,53.464176 9.571301,52.107368 10.272172,51.075211 
	C10.909338,50.136871 12.066259,49.551468 12.994059,48.810478 
	C11.949057,47.942619 10.904055,47.074757 9.859054,46.206898 
	C9.366087,46.294163 8.873120,46.381432 8.380154,46.468697 
	C9.270012,42.961998 9.451396,39.018295 11.263519,36.080475 
	C12.844939,33.516674 13.687066,32.172642 11.133661,30.051928 
	C10.654036,29.653578 11.065010,28.182922 11.065010,27.197008 
	C15.199814,27.910589 19.055538,28.576008 23.485792,29.340578 
	C22.456427,30.429468 21.771872,31.153610 20.542681,32.453880 
	C23.864182,34.218811 26.991873,35.880760 30.093729,37.528980 
	C31.111786,35.125298 31.793131,33.516613 32.673531,31.437948 
	C31.693459,31.179451 30.342445,30.823116 28.991434,30.466782 
	C28.982763,30.182358 28.974092,29.897934 28.965424,29.613510 
	C30.240959,29.273266 31.516495,28.933020 32.742973,28.605862 
	C32.163372,26.986202 31.584829,25.369497 31.007473,23.375088 
	C31.008659,22.997383 30.939531,23.070578 30.939531,23.070578 
	C31.925293,22.479834 32.911053,21.889090 34.212254,21.109312 
	C34.642902,21.607065 35.280113,22.343567 36.317123,23.542160 
	C36.835152,21.690395 37.318993,20.417233 37.529964,19.100355 
	C37.851070,17.096062 38.145092,15.060322 38.130634,13.040229 
	C38.122799,11.946132 37.452023,10.856782 37.080303,9.765291 
	C38.215416,9.444098 39.350529,9.122906 40.958050,8.668038 
	C40.958050,11.684094 40.958050,14.120429 40.958050,16.835121 
	C43.820972,16.963417 46.353191,17.076893 48.415478,17.169310 
	C47.720558,19.795071 47.111774,22.095369 46.286957,25.211948 
	C42.919456,25.211948 39.047070,25.211948 34.499134,25.211948 
	C35.569923,26.342276 36.240223,27.049841 36.911568,27.754990 
	C33.534409,31.647068 34.236481,36.145203 38.968601,37.868259 
	C41.760914,38.884991 44.991806,38.883579 48.036102,38.971546 
	C51.336533,39.066925 54.443512,38.807484 55.146141,43.326920 
	C55.295238,44.285950 57.259487,44.962784 59.022762,46.224091 
	C59.022762,46.802776 59.022762,48.224422 59.022762,49.795422 
	C60.453003,49.941463 61.544552,50.052917 63.572678,50.260010 
	C62.615570,55.207340 61.708050,59.898376 60.965889,63.734646 
	C58.905422,64.226532 57.306316,64.608276 55.353413,64.994110 
	C54.999611,64.998192 55.069790,65.070908 55.037415,64.634697 
	C55.455368,58.508205 50.975704,61.980907 48.966225,60.965073 
	C49.002491,61.000259 49.075909,61.069717 49.075909,61.069717 
z"/>
<path fill="#000000" opacity="1.000000" stroke="none" 
	d="
M54.964828,64.961533 
	C53.728603,66.697456 52.527157,68.470032 52.019165,69.219513 
	C53.488392,73.317444 54.775383,76.907089 56.030682,80.408348 
	C57.617371,79.390259 59.901398,77.924728 62.185429,76.459206 
	C62.385128,76.800255 62.584827,77.141304 62.784527,77.482353 
	C61.991116,79.193253 61.197704,80.904160 60.226017,82.999489 
	C56.295944,82.999489 51.589890,84.092712 47.801670,82.696198 
	C43.907719,81.260712 40.559029,84.180824 35.862991,82.138992 
	C38.203938,81.362480 39.526485,80.923775 42.114429,80.065331 
	C39.303825,76.759712 36.806541,73.822594 34.289658,70.862419 
	C33.245354,71.718628 32.470081,72.354263 31.347233,72.991821 
	C30.999651,72.993759 31.072861,73.062943 31.072861,73.062943 
	C28.482353,68.244141 28.482353,68.244141 32.580025,62.995979 
	C30.917860,63.481960 29.255693,63.967941 27.290638,64.542480 
	C27.217056,63.723381 27.111483,62.548138 26.883789,60.013485 
	C33.204380,61.312744 38.907288,62.485039 44.380749,63.610165 
	C45.292931,62.992840 46.761330,61.999088 48.652817,61.037529 
	C49.075909,61.069717 49.002491,61.000259 48.995605,61.367008 
	C47.670246,64.250267 46.277267,66.735641 45.186188,69.347160 
	C45.105930,69.539268 47.204147,70.641525 47.886612,71.068527 
	C49.184498,67.921394 50.268528,65.292816 51.294037,62.806141 
	C53.126057,63.905022 54.097923,64.487961 55.069790,65.070908 
	C55.069790,65.070908 54.999611,64.998192 54.964828,64.961533 
z"/>
<path fill="#000000" opacity="1.000000" stroke="none" 
	d="
M63.064899,28.925552 
	C61.400799,30.961267 59.736698,32.996986 58.072598,35.032703 
	C57.708336,34.900761 57.344074,34.768822 56.979813,34.636879 
	C57.435467,33.045612 57.891125,31.454344 58.466160,29.446171 
	C57.390530,28.100042 54.637276,26.185072 60.361935,23.976007 
	C57.788879,23.314089 56.181786,22.900665 54.574696,22.487240 
	C54.982811,21.998285 55.390926,21.509329 55.799042,21.020372 
	C55.263760,21.689404 54.728474,22.358435 54.046848,23.210373 
	C53.007874,21.186834 52.101418,19.421398 51.265705,17.793736 
	C55.512375,16.502720 59.870518,15.177816 65.290695,13.530046 
	C65.915695,17.518343 66.639290,22.135778 67.362885,26.753216 
	C66.709183,26.863758 66.055481,26.974302 65.401779,27.084845 
	C65.196327,25.249763 64.990875,23.414684 64.752586,21.286356 
	C63.621708,21.286356 62.427822,21.286356 60.125168,21.286356 
	C61.233398,23.979971 62.109657,26.109776 62.990723,28.619162 
	C62.995529,28.998745 63.064899,28.925552 63.064899,28.925552 
z"/>
<path fill="#000000" opacity="1.000000" stroke="none" 
	d="
M62.958893,29.033386 
	C64.579742,30.188965 66.237236,31.309902 67.694069,32.295143 
	C72.391090,30.830978 77.307198,29.298521 82.653008,27.632114 
	C80.841919,33.031269 84.493721,38.755379 82.611542,44.650021 
	C81.150276,44.135517 79.552948,43.573105 77.587006,43.107635 
	C77.218391,43.204575 77.299782,43.279823 77.299782,43.279823 
	C77.724716,39.905926 78.149643,36.532032 78.578453,33.127331 
	C73.805061,36.457237 67.210648,36.454578 64.191505,32.983887 
	C63.487785,32.174915 63.384563,30.843575 63.034973,29.339066 
	C63.064899,28.925552 62.995529,28.998745 62.958893,29.033386 
z"/>
<path fill="#000000" opacity="1.000000" stroke="none" 
	d="
M70.944023,62.952183 
	C71.417076,63.629833 71.754753,64.709320 72.384613,64.921516 
	C77.379524,66.604256 78.169380,68.711121 75.522896,73.182968 
	C74.917732,74.205528 74.914314,75.584198 74.587601,76.999763 
	C72.350655,76.999763 70.210800,77.051056 68.074287,76.988335 
	C64.419029,76.881027 61.840626,73.107986 63.069954,69.795341 
	C63.538185,68.533615 63.880432,67.225143 64.442909,65.413582 
	C65.637878,64.921295 67.952705,63.967659 70.642349,63.018089 
	C71.017174,63.022156 70.944023,62.952183 70.944023,62.952183 
M69.533775,67.000351 
	C64.580032,67.300491 68.014763,70.735626 66.887054,72.655106 
	C69.268547,72.655106 71.106812,72.655106 73.575302,72.655106 
	C71.869308,70.652603 75.260963,66.919487 69.533775,67.000351 
z"/>
<path fill="#000000" opacity="1.000000" stroke="none" 
	d="
M71.052025,63.058857 
	C69.537285,57.689545 67.592033,62.410809 65.812454,62.891735 
	C65.421486,62.575531 65.030518,62.259327 64.639549,61.943127 
	C65.623520,60.954971 66.654312,60.008541 67.580551,58.968956 
	C68.992508,57.384201 70.332115,55.734997 71.702454,54.113167 
	C71.258148,53.719196 70.813843,53.325226 70.369530,52.931259 
	C69.529747,53.627445 68.689957,54.323635 67.775291,55.081905 
	C67.064102,51.861053 67.064102,51.861053 72.644028,47.006821 
	C72.997437,47.003361 72.924240,46.934135 72.924240,46.934135 
	C74.472458,49.288925 76.020668,51.643715 77.815262,54.373238 
	C75.546509,54.907417 74.259796,55.210373 72.505699,55.623371 
	C75.069641,57.148693 77.048546,58.325966 79.232437,59.625191 
	C78.121819,60.860096 77.236717,61.844242 76.351616,62.828392 
	C76.184105,62.460037 76.016594,62.091682 75.849091,61.723331 
	C74.466866,62.146240 73.084641,62.569149 71.323219,62.972122 
	C70.944023,62.952183 71.017174,63.022156 71.052025,63.058857 
z"/>
<path fill="#000000" opacity="1.000000" stroke="none" 
	d="
M9.000152,12.148084 
	C9.948094,10.776780 10.833786,9.216999 11.855028,9.122528 
	C15.317771,8.802200 18.828465,9.000245 22.660210,9.000245 
	C22.660210,13.504889 22.660210,17.911499 22.660210,22.663378 
	C18.488768,22.663378 14.082281,22.663378 9.000019,22.663378 
	C9.000019,19.474197 9.000019,16.052658 9.000152,12.148084 
M20.269299,20.942238 
	C20.574987,17.682331 20.880678,14.422424 21.174046,11.293930 
	C17.274633,11.293930 14.222037,11.293930 11.253400,11.293930 
	C11.253400,14.642196 11.253400,17.691320 11.253400,20.996042 
	C14.107777,20.996042 16.711924,20.996042 20.269299,20.942238 
z"/>
<path fill="#000000" opacity="1.000000" stroke="none" 
	d="
M72.148087,22.999849 
	C70.776779,22.051908 69.216995,21.166220 69.122528,20.144979 
	C68.802200,16.682236 69.000244,13.171540 69.000244,9.339792 
	C73.505608,9.339792 77.913612,9.339792 82.663376,9.339792 
	C82.663376,13.511225 82.663376,17.917711 82.663376,22.999981 
	C79.474205,22.999981 76.052666,22.999981 72.148087,22.999849 
M81.000000,15.520332 
	C81.000000,14.099929 81.000000,12.679525 81.000000,11.215967 
	C77.434822,11.215967 74.387863,11.215967 71.349930,11.215967 
	C71.349930,14.607691 71.349930,17.768507 71.349930,20.865135 
	C74.630768,20.865135 77.560738,20.865135 81.000000,20.865135 
	C81.000000,19.332195 81.000000,17.904104 81.000000,15.520332 
z"/>
<path fill="#000000" opacity="1.000000" stroke="none" 
	d="
M10.223803,69.030670 
	C14.665717,69.003960 18.625809,69.003960 22.788052,69.003960 
	C22.788052,73.770065 22.788052,78.175659 22.788052,82.791290 
	C18.223206,82.791290 13.817635,82.791290 8.692971,82.791290 
	C9.052997,78.077728 9.397489,73.567551 10.223803,69.030670 
M19.317917,71.003922 
	C16.590551,71.003922 13.863187,71.003922 11.270250,71.003922 
	C11.270250,74.677551 11.270250,77.728851 11.270250,80.769905 
	C14.592830,80.769905 17.640604,80.769905 21.294209,80.769905 
	C20.933769,77.351700 20.601877,74.204247 19.317917,71.003922 
z"/>
<path fill="#000000" opacity="1.000000" stroke="none" 
	d="
M73.031998,47.040009 
	C72.952148,45.061695 72.837746,43.046738 72.665504,40.013168 
	C70.855354,43.062702 69.631149,45.125103 68.406944,47.187504 
	C68.066772,47.113792 67.726593,47.040077 67.386421,46.966362 
	C67.182030,45.138802 66.977638,43.311237 66.842583,42.103661 
	C64.595856,40.679634 62.671646,39.460030 60.747437,38.240425 
	C60.866215,37.830330 60.984989,37.420235 61.103767,37.010139 
	C65.579094,37.046642 70.258446,42.257000 74.174736,36.968006 
	C74.982094,39.154457 75.695541,41.086586 76.854385,43.149269 
	C77.299782,43.279823 77.218391,43.204575 77.183899,43.174782 
	C77.081825,45.357418 77.311790,47.830967 73.347450,46.964622 
	C72.924240,46.934135 72.997437,47.003361 73.031998,47.040009 
z"/>
<path fill="#000000" opacity="1.000000" stroke="none" 
	d="
M79.003281,72.955177 
	C79.689545,70.479752 83.116776,68.773552 79.215828,66.169777 
	C77.751396,65.192307 79.472855,63.286362 82.773438,63.121571 
	C82.773438,67.677475 82.773438,72.223244 82.773438,77.984001 
	C81.096664,75.932266 80.049889,74.651405 79.003281,72.955177 
z"/>
<path fill="#000000" opacity="1.000000" stroke="none" 
	d="
M31.045322,22.962889 
	C29.987885,22.323486 28.893785,21.718576 27.523848,20.961163 
	C27.123369,22.352823 26.738605,23.689875 26.181059,25.627344 
	C24.193161,19.862682 26.063190,15.570499 30.625364,15.015049 
	C31.017822,15.022860 30.944645,14.952978 30.944645,14.952978 
	C30.961613,17.358915 30.978579,19.764854 30.967537,22.620686 
	C30.939531,23.070578 31.008659,22.997383 31.045322,22.962889 
z"/>
<path fill="#000000" opacity="1.000000" stroke="none" 
	d="
M30.965088,72.957123 
	C30.930525,74.068527 30.930525,75.216568 30.932518,76.364616 
	C25.478632,77.367310 23.611940,73.930237 25.967499,66.896774 
	C28.585373,68.154945 24.599926,74.066246 30.636036,73.033813 
	C31.072861,73.062943 30.999651,72.993759 30.965088,72.957123 
z"/>
<path fill="#000000" opacity="1.000000" stroke="none" 
	d="
M31.052647,15.059557 
	C29.138395,14.052227 27.189318,13.008201 24.941822,11.804326 
	C28.198565,9.677364 31.450478,9.449842 35.278389,11.779161 
	C34.040604,12.896665 32.880444,13.944082 31.332464,14.972239 
	C30.944645,14.952978 31.017822,15.022860 31.052647,15.059557 
z"/>
<path fill="#FFFFFF" opacity="1.000000" stroke="none" 
	d="
M55.037415,64.634697 
	C54.097923,64.487961 53.126057,63.905022 51.294037,62.806141 
	C50.268528,65.292816 49.184498,67.921394 47.886612,71.068527 
	C47.204147,70.641525 45.105930,69.539268 45.186188,69.347160 
	C46.277267,66.735641 47.670246,64.250267 48.959335,61.331821 
	C50.975704,61.980907 55.455368,58.508205 55.037415,64.634697 
z"/>
<path fill="#FFFFFF" opacity="1.000000" stroke="none" 
	d="
M69.997620,67.000328 
	C75.260963,66.919487 71.869308,70.652603 73.575302,72.655106 
	C71.106812,72.655106 69.268547,72.655106 66.887054,72.655106 
	C68.014763,70.735626 64.580032,67.300491 69.997620,67.000328 
z"/>
<path fill="#FFFFFF" opacity="1.000000" stroke="none" 
	d="
M19.792685,20.969139 
	C16.711924,20.996042 14.107777,20.996042 11.253400,20.996042 
	C11.253400,17.691320 11.253400,14.642196 11.253400,11.293930 
	C14.222037,11.293930 17.274633,11.293930 21.174046,11.293930 
	C20.880678,14.422424 20.574987,17.682331 19.792685,20.969139 
M13.003802,17.370165 
	C14.765102,18.112204 16.526402,18.854242 18.679306,19.761267 
	C18.679306,16.787210 18.679306,14.947114 18.679306,12.954774 
	C16.056305,13.401903 12.298712,11.362557 13.003802,17.370165 
z"/>
<path fill="#FFFFFF" opacity="1.000000" stroke="none" 
	d="
M81.000000,15.998173 
	C81.000000,17.904104 81.000000,19.332195 81.000000,20.865135 
	C77.560738,20.865135 74.630768,20.865135 71.349930,20.865135 
	C71.349930,17.768507 71.349930,14.607691 71.349930,11.215967 
	C74.387863,11.215967 77.434822,11.215967 81.000000,11.215967 
	C81.000000,12.679525 81.000000,14.099929 81.000000,15.998173 
M78.996193,14.629843 
	C77.234901,13.887800 75.473602,13.145757 73.320694,12.238726 
	C73.320694,15.212789 73.320694,17.052883 73.320694,19.139931 
	C75.899223,18.526913 79.720535,20.668261 78.996193,14.629843 
z"/>
<path fill="#FFFFFF" opacity="1.000000" stroke="none" 
	d="
M19.793953,71.030350 
	C20.601877,74.204247 20.933769,77.351700 21.294209,80.769905 
	C17.640604,80.769905 14.592830,80.769905 11.270250,80.769905 
	C11.270250,77.728851 11.270250,74.677551 11.270250,71.003922 
	C13.863187,71.003922 16.590551,71.003922 19.793953,71.030350 
M13.692216,78.941811 
	C15.420012,78.941811 17.147808,78.941811 19.059002,78.941811 
	C18.956837,76.644638 18.879978,74.916481 18.805264,73.236519 
	C16.725685,73.236519 15.000366,73.236519 13.055656,73.236519 
	C13.055656,75.077133 13.055656,76.684280 13.692216,78.941811 
z"/>
<path fill="#000000" opacity="1.000000" stroke="none" 
	d="
M13.002064,16.915428 
	C12.298712,11.362557 16.056305,13.401903 18.679306,12.954774 
	C18.679306,14.947114 18.679306,16.787210 18.679306,19.761267 
	C16.526402,18.854242 14.765102,18.112204 13.002064,16.915428 
z"/>
<path fill="#000000" opacity="1.000000" stroke="none" 
	d="
M78.997932,15.084577 
	C79.720535,20.668261 75.899223,18.526913 73.320694,19.139931 
	C73.320694,17.052883 73.320694,15.212789 73.320694,12.238726 
	C75.473602,13.145757 77.234901,13.887800 78.997932,15.084577 
z"/>
<path fill="#000000" opacity="1.000000" stroke="none" 
	d="
M13.373936,78.616615 
	C13.055656,76.684280 13.055656,75.077133 13.055656,73.236519 
	C15.000366,73.236519 16.725685,73.236519 18.805264,73.236519 
	C18.879978,74.916481 18.956837,76.644638 19.059002,78.941811 
	C17.147808,78.941811 15.420012,78.941811 13.373936,78.616615 
z"/>
</svg>